<svg width="164" height="295" viewBox="0 0 164 295" fill="none" xmlns="http://www.w3.org/2000/svg">
<g clip-path="url(#clip0_242_336)">
<g clip-path="url(#clip1_242_336)">
<g clip-path="url(#clip2_242_336)">
<path d="M135.66 1.46973H28.6602C13.4723 1.46973 1.16016 13.7819 1.16016 28.9697V307.97C1.16016 323.158 13.4723 335.47 28.6602 335.47H135.66C150.848 335.47 163.16 323.158 163.16 307.97V28.9697C163.16 13.7819 150.848 1.46973 135.66 1.46973Z" fill="#010101" stroke="#353230"/>
<path d="M134.66 7.46973H29.6602C16.9576 7.46973 6.66016 17.7672 6.66016 30.4697V305.47C6.66016 318.172 16.9576 328.47 29.6602 328.47H134.66C147.363 328.47 157.66 318.172 157.66 305.47V30.4697C157.66 17.7672 147.363 7.46973 134.66 7.46973Z" fill="#16181E"/>
<path d="M143.77 43.4697H143.55C143.285 43.4697 143.03 43.5751 142.843 43.7626C142.655 43.9501 142.55 44.2045 142.55 44.4697V44.5597C142.55 44.7351 142.504 44.9073 142.416 45.0591C142.328 45.2109 142.202 45.337 142.05 45.4247L141.835 45.5497C141.683 45.6375 141.511 45.6837 141.335 45.6837C141.159 45.6837 140.987 45.6375 140.835 45.5497L140.76 45.5097C140.531 45.3773 140.258 45.3414 140.002 45.4099C139.746 45.4783 139.528 45.6455 139.395 45.8747L139.285 46.0647C139.153 46.2942 139.117 46.5668 139.185 46.8227C139.254 47.0786 139.421 47.2969 139.65 47.4297L139.725 47.4797C139.876 47.567 140.002 47.6922 140.09 47.8431C140.177 47.994 140.224 48.1652 140.225 48.3397V48.5947C140.226 48.7709 140.18 48.9442 140.092 49.097C140.004 49.2497 139.878 49.3766 139.725 49.4647L139.65 49.5097C139.421 49.6425 139.254 49.8608 139.185 50.1167C139.117 50.3726 139.153 50.6452 139.285 50.8747L139.395 51.0647C139.528 51.2939 139.746 51.4611 140.002 51.5295C140.258 51.598 140.531 51.5621 140.76 51.4297L140.835 51.3897C140.987 51.3019 141.159 51.2557 141.335 51.2557C141.511 51.2557 141.683 51.3019 141.835 51.3897L142.05 51.5147C142.202 51.6024 142.328 51.7285 142.416 51.8803C142.504 52.0321 142.55 52.2043 142.55 52.3797V52.4697C142.55 52.7349 142.655 52.9893 142.843 53.1768C143.03 53.3643 143.285 53.4697 143.55 53.4697H143.77C144.035 53.4697 144.29 53.3643 144.477 53.1768C144.665 52.9893 144.77 52.7349 144.77 52.4697V52.3797C144.77 52.2043 144.816 52.0321 144.904 51.8803C144.992 51.7285 145.118 51.6024 145.27 51.5147L145.485 51.3897C145.637 51.3019 145.809 51.2557 145.985 51.2557C146.161 51.2557 146.333 51.3019 146.485 51.3897L146.56 51.4297C146.789 51.5621 147.062 51.598 147.318 51.5295C147.574 51.4611 147.792 51.2939 147.925 51.0647L148.035 50.8697C148.167 50.6402 148.203 50.3676 148.135 50.1117C148.066 49.8558 147.899 49.6375 147.67 49.5047L147.595 49.4647C147.442 49.3766 147.316 49.2497 147.228 49.097C147.14 48.9442 147.094 48.7709 147.095 48.5947V48.3447C147.094 48.1685 147.14 47.9952 147.228 47.8424C147.316 47.6897 147.442 47.5628 147.595 47.4747L147.67 47.4297C147.899 47.2969 148.066 47.0786 148.135 46.8227C148.203 46.5668 148.167 46.2942 148.035 46.0647L147.925 45.8747C147.792 45.6455 147.574 45.4783 147.318 45.4099C147.062 45.3414 146.789 45.3773 146.56 45.5097L146.485 45.5497C146.333 45.6375 146.161 45.6837 145.985 45.6837C145.809 45.6837 145.637 45.6375 145.485 45.5497L145.27 45.4247C145.118 45.337 144.992 45.2109 144.904 45.0591C144.816 44.9073 144.77 44.7351 144.77 44.5597V44.4697C144.77 44.2045 144.665 43.9501 144.477 43.7626C144.29 43.5751 144.035 43.4697 143.77 43.4697Z" stroke="#A1A1A6" stroke-width="0.75" stroke-linecap="round" stroke-linejoin="round"/>
<path d="M143.66 49.9697C144.488 49.9697 145.16 49.2981 145.16 48.4697C145.16 47.6413 144.488 46.9697 143.66 46.9697C142.832 46.9697 142.16 47.6413 142.16 48.4697C142.16 49.2981 142.832 49.9697 143.66 49.9697Z" stroke="#A1A1A6" stroke-width="0.75" stroke-linecap="round" stroke-linejoin="round"/>
<path d="M22.1835 47.0714H20.9649C20.918 46.8109 20.8307 46.5818 20.7031 46.3839C20.5755 46.1859 20.4192 46.018 20.2343 45.88C20.0494 45.7419 19.8424 45.6378 19.6132 45.5675C19.3867 45.4971 19.1458 45.462 18.8906 45.462C18.4296 45.462 18.017 45.5779 17.6524 45.8096C17.2904 46.0414 17.0039 46.3813 16.7929 46.8292C16.5846 47.2771 16.4804 47.824 16.4804 48.4698C16.4804 49.1208 16.5846 49.6703 16.7929 50.1182C17.0039 50.5662 17.2916 50.9047 17.6562 51.1339C18.0208 51.363 18.431 51.4776 18.8868 51.4776C19.1394 51.4776 19.3789 51.4438 19.6054 51.376C19.8346 51.3057 20.0417 51.2029 20.2266 51.0675C20.4114 50.932 20.5677 50.7667 20.6953 50.5714C20.8255 50.3734 20.9154 50.1469 20.9649 49.8917L22.1835 49.8956C22.1184 50.2888 21.9922 50.6508 21.8047 50.9815C21.6198 51.3096 21.3816 51.5935 21.0899 51.8331C20.8008 52.0701 20.47 52.2537 20.0976 52.3839C19.7252 52.5141 19.319 52.5792 18.8789 52.5792C18.1861 52.5792 17.5691 52.4151 17.0274 52.087C16.4857 51.7563 16.0585 51.2836 15.746 50.669C15.4361 50.0544 15.2812 49.3214 15.2812 48.4698C15.2812 47.6156 15.4374 46.8826 15.7499 46.2706C16.0624 45.656 16.4895 45.1846 17.0312 44.8565C17.5729 44.5258 18.1887 44.3604 18.8789 44.3604C19.3033 44.3604 19.6992 44.4216 20.0664 44.544C20.4361 44.6638 20.7682 44.8409 21.0624 45.0753C21.3567 45.307 21.6002 45.5909 21.7929 45.9268C21.9856 46.2602 22.1158 46.6417 22.1835 47.0714ZM25.2802 52.6026C24.9 52.6026 24.5563 52.5323 24.249 52.3917C23.9417 52.2484 23.6982 52.0414 23.5185 51.7706C23.3414 51.4997 23.2529 51.1677 23.2529 50.7745C23.2529 50.4359 23.318 50.1573 23.4482 49.9385C23.5784 49.7198 23.7542 49.5466 23.9755 49.419C24.1969 49.2914 24.4443 49.1951 24.7177 49.13C24.9913 49.0649 25.2698 49.0154 25.5538 48.9815C25.913 48.9399 26.2048 48.906 26.4288 48.88C26.6526 48.8513 26.8154 48.8057 26.9169 48.7432C27.0185 48.6807 27.0694 48.5792 27.0694 48.4385V48.4112C27.0694 48.0701 26.9729 47.8057 26.7802 47.6182C26.5901 47.4307 26.3063 47.337 25.9288 47.337C25.5354 47.337 25.2255 47.4242 24.999 47.5987C24.775 47.7706 24.6202 47.962 24.5342 48.1729L23.4365 47.9229C23.5667 47.5583 23.7569 47.2641 24.0069 47.0401C24.2594 46.8135 24.5497 46.6495 24.8779 46.5479C25.206 46.4438 25.5511 46.3917 25.913 46.3917C26.1526 46.3917 26.4066 46.4203 26.6748 46.4776C26.9457 46.5323 27.1982 46.6339 27.4326 46.7823C27.6695 46.9307 27.8636 47.143 28.0146 47.419C28.1656 47.6925 28.2413 48.0479 28.2413 48.4854V52.4698H27.1005V51.6495H27.0538C26.9782 51.8005 26.8649 51.949 26.7138 52.0948C26.5628 52.2406 26.3689 52.3617 26.1319 52.4581C25.8948 52.5544 25.6109 52.6026 25.2802 52.6026ZM25.5342 51.6651C25.857 51.6651 26.1332 51.6013 26.3623 51.4737C26.5941 51.3461 26.7698 51.1794 26.8896 50.9737C27.012 50.7654 27.0732 50.5427 27.0732 50.3057V49.5323C27.0315 49.574 26.9508 49.613 26.831 49.6495C26.7139 49.6833 26.5798 49.7133 26.4288 49.7393C26.2776 49.7628 26.1306 49.7849 25.9873 49.8057C25.8441 49.824 25.7242 49.8396 25.6279 49.8526C25.4014 49.8813 25.1944 49.9294 25.0069 49.9971C24.8219 50.0649 24.6734 50.1625 24.5615 50.2901C24.4521 50.4151 24.3975 50.5818 24.3975 50.7901C24.3975 51.0792 24.5042 51.2979 24.7177 51.4464C24.9313 51.5922 25.2035 51.6651 25.5342 51.6651ZM29.7968 52.4698V46.4698H30.9257V47.4229H30.9882C31.0976 47.1 31.2903 46.8461 31.5664 46.6612C31.845 46.4737 32.1601 46.38 32.5117 46.38C32.5847 46.38 32.6705 46.3826 32.7696 46.3878C32.871 46.393 32.9505 46.3995 33.0078 46.4073V47.5245C32.9609 47.5115 32.8775 47.4971 32.7578 47.4815C32.638 47.4633 32.5182 47.4542 32.3984 47.4542C32.1223 47.4542 31.8762 47.5128 31.6601 47.63C31.4466 47.7445 31.2774 47.9047 31.1524 48.1104C31.0274 48.3135 30.9649 48.5453 30.9649 48.8057V52.4698H29.7968ZM36.0497 52.587C35.5654 52.587 35.1331 52.4633 34.7529 52.2159C34.3753 51.9659 34.0784 51.6104 33.8622 51.1495C33.6487 50.6859 33.542 50.13 33.542 49.4815C33.542 48.8331 33.65 48.2784 33.8662 47.8175C34.0849 47.3565 34.3844 47.0037 34.7646 46.7589C35.1448 46.5141 35.5758 46.3917 36.0576 46.3917C36.43 46.3917 36.7294 46.4542 36.956 46.5792C37.1852 46.7016 37.3622 46.8448 37.4872 47.0089C37.6149 47.1729 37.7139 47.3175 37.7841 47.4425H37.8545V44.4698H39.0224V52.4698H37.8818V51.5362H37.7841C37.7139 51.6638 37.6122 51.8096 37.4795 51.9737C37.3493 52.1378 37.1695 52.281 36.9404 52.4034C36.7112 52.5258 36.4143 52.587 36.0497 52.587ZM36.3076 51.5909C36.6435 51.5909 36.9274 51.5024 37.1591 51.3253C37.3935 51.1456 37.5706 50.8969 37.6904 50.5792C37.8128 50.2615 37.8741 49.8917 37.8741 49.4698C37.8741 49.0531 37.8141 48.6885 37.6943 48.376C37.5745 48.0635 37.3988 47.8201 37.167 47.6456C36.9352 47.4711 36.6487 47.3839 36.3076 47.3839C35.956 47.3839 35.663 47.475 35.4287 47.6573C35.1943 47.8396 35.0173 48.0883 34.8974 48.4034C34.7802 48.7185 34.7216 49.074 34.7216 49.4698C34.7216 49.8708 34.7815 50.2315 34.9013 50.5518C35.0211 50.8721 35.1982 51.126 35.4326 51.3135C35.6695 51.4984 35.9612 51.5909 36.3076 51.5909ZM45.1855 47.9346L44.1269 48.1221C44.0826 47.9867 44.0124 47.8578 43.916 47.7354C43.8223 47.613 43.6947 47.5128 43.5331 47.4346C43.3717 47.3565 43.17 47.3175 42.9277 47.3175C42.597 47.3175 42.3209 47.3917 42.0996 47.5401C41.8782 47.6859 41.7675 47.8747 41.7675 48.1065C41.7675 48.307 41.8417 48.4685 41.9902 48.5909C42.1386 48.7133 42.3783 48.8135 42.709 48.8917L43.6621 49.1104C44.2141 49.238 44.6257 49.4346 44.8965 49.7003C45.1674 49.9659 45.3027 50.3109 45.3027 50.7354C45.3027 51.0948 45.1985 51.4151 44.9902 51.6964C44.7845 51.975 44.4967 52.1938 44.1269 52.3526C43.7597 52.5115 43.3339 52.5909 42.8496 52.5909C42.1777 52.5909 41.6295 52.4477 41.205 52.1612C40.7805 51.8721 40.5201 51.462 40.4238 50.9307L41.5527 50.7589C41.623 51.0531 41.7675 51.2758 41.9863 51.4268C42.205 51.5753 42.4902 51.6495 42.8417 51.6495C43.2246 51.6495 43.5306 51.5701 43.7598 51.4112C43.989 51.2497 44.1035 51.0531 44.1035 50.8214C44.1035 50.6339 44.0331 50.4763 43.8925 50.3487C43.7545 50.2211 43.5423 50.1247 43.2558 50.0596L42.2402 49.837C41.6803 49.7094 41.2662 49.5063 40.998 49.2276C40.7324 48.949 40.5996 48.5961 40.5996 48.169C40.5996 47.8149 40.6985 47.505 40.8965 47.2393C41.0944 46.9737 41.3678 46.7667 41.7167 46.6182C42.0657 46.4672 42.4655 46.3917 42.916 46.3917C43.5644 46.3917 44.0749 46.5323 44.4473 46.8135C44.8197 47.0922 45.0657 47.4659 45.1855 47.9346Z" fill="#A1A1A6"/>
<path d="M22.4882 169.469C22.4882 170.323 22.332 171.058 22.0195 171.672C21.707 172.284 21.2786 172.755 20.7343 173.086C20.1927 173.414 19.5769 173.578 18.8868 173.578C18.1941 173.578 17.5755 173.414 17.0312 173.086C16.4895 172.755 16.0624 172.283 15.7499 171.668C15.4374 171.054 15.2812 170.321 15.2812 169.469C15.2812 168.615 15.4374 167.882 15.7499 167.27C16.0624 166.655 16.4895 166.184 17.0312 165.856C17.5755 165.525 18.1941 165.36 18.8868 165.36C19.5769 165.36 20.1927 165.525 20.7343 165.856C21.2786 166.184 21.707 166.655 22.0195 167.27C22.332 167.882 22.4882 168.615 22.4882 169.469ZM21.2929 169.469C21.2929 168.818 21.1874 168.27 20.9766 167.824C20.7682 167.377 20.4818 167.038 20.1172 166.809C19.7553 166.577 19.3451 166.461 18.8868 166.461C18.4258 166.461 18.0144 166.577 17.6524 166.809C17.2904 167.038 17.0039 167.377 16.7929 167.824C16.5846 168.27 16.4804 168.818 16.4804 169.469C16.4804 170.12 16.5846 170.67 16.7929 171.117C17.0039 171.563 17.2904 171.901 17.6524 172.133C18.0144 172.362 18.4258 172.477 18.8868 172.477C19.3451 172.477 19.7553 172.362 20.1172 172.133C20.4818 171.901 20.7682 171.563 20.9766 171.117C21.1874 170.67 21.2929 170.12 21.2929 169.469ZM29.0323 167.469L26.8565 173.469H25.6065L23.4267 167.469H24.6806L26.2002 172.086H26.2627L27.7783 167.469H29.0323ZM32.5117 173.59C31.9205 173.59 31.4114 173.464 30.9843 173.211C30.5598 172.956 30.2317 172.598 29.9999 172.137C29.7708 171.673 29.6562 171.13 29.6562 170.508C29.6562 169.893 29.7708 169.352 29.9999 168.883C30.2317 168.414 30.5546 168.048 30.9687 167.785C31.3854 167.522 31.8723 167.391 32.4296 167.391C32.7682 167.391 33.0963 167.447 33.414 167.559C33.7317 167.671 34.017 167.847 34.2696 168.086C34.5222 168.326 34.7213 168.637 34.8671 169.02C35.0131 169.4 35.0859 169.862 35.0859 170.406V170.821H30.3164V169.946H33.9414C33.9414 169.638 33.8789 169.366 33.7539 169.129C33.6289 168.89 33.4531 168.701 33.2265 168.563C33.0025 168.425 32.7395 168.356 32.4375 168.356C32.1094 168.356 31.8229 168.436 31.5781 168.598C31.3359 168.757 31.1484 168.965 31.0156 169.223C30.8854 169.478 30.8203 169.755 30.8203 170.055V170.739C30.8203 171.14 30.8906 171.481 31.0312 171.762C31.1744 172.043 31.3736 172.258 31.6289 172.406C31.8841 172.552 32.1822 172.625 32.5234 172.625C32.7447 172.625 32.9466 172.594 33.1289 172.531C33.3111 172.466 33.4687 172.37 33.6015 172.242C33.7343 172.115 33.836 171.957 33.9062 171.77L35.0117 171.969C34.9231 172.295 34.7643 172.58 34.5351 172.824C34.3085 173.067 34.0234 173.255 33.6796 173.391C33.3385 173.524 32.9492 173.59 32.5117 173.59ZM36.3818 173.469V167.469H37.5107V168.422H37.5732C37.6826 168.099 37.8753 167.845 38.1513 167.66C38.43 167.473 38.7451 167.379 39.0966 167.379C39.1695 167.379 39.2556 167.382 39.3545 167.387C39.4561 167.392 39.5354 167.399 39.5927 167.406V168.524C39.5458 168.511 39.4625 168.496 39.3427 168.481C39.2229 168.462 39.1031 168.453 38.9833 168.453C38.7073 168.453 38.4612 168.512 38.2451 168.629C38.0315 168.744 37.8622 168.904 37.7372 169.11C37.6122 169.313 37.5497 169.545 37.5497 169.805V173.469H36.3818ZM45.9189 167.469L43.7431 173.469H42.4931L40.3134 167.469H41.5673L43.0869 172.086H43.1494L44.6651 167.469H45.9189ZM47.0165 173.469V167.469H48.1845V173.469H47.0165ZM47.6064 166.543C47.4034 166.543 47.2288 166.476 47.083 166.34C46.9398 166.202 46.8681 166.038 46.8681 165.848C46.8681 165.655 46.9398 165.491 47.083 165.356C47.2288 165.218 47.4034 165.149 47.6064 165.149C47.8095 165.149 47.9827 165.218 48.1259 165.356C48.2719 165.491 48.3447 165.655 48.3447 165.848C48.3447 166.038 48.2719 166.202 48.1259 166.34C47.9827 166.476 47.8095 166.543 47.6064 166.543ZM52.3417 173.59C51.7506 173.59 51.2416 173.464 50.8144 173.211C50.3899 172.956 50.0618 172.598 49.83 172.137C49.6009 171.673 49.4863 171.13 49.4863 170.508C49.4863 169.893 49.6009 169.352 49.83 168.883C50.0618 168.414 50.3847 168.048 50.7988 167.785C51.2154 167.522 51.7024 167.391 52.2598 167.391C52.5984 167.391 52.9264 167.447 53.2441 167.559C53.5618 167.671 53.8469 167.847 54.0996 168.086C54.3522 168.326 54.5514 168.637 54.6973 169.02C54.8431 169.4 54.916 169.862 54.916 170.406V170.821H50.1465V169.946H53.7715C53.7715 169.638 53.709 169.366 53.584 169.129C53.459 168.89 53.2831 168.701 53.0566 168.563C52.8326 168.425 52.5696 168.356 52.2675 168.356C51.9394 168.356 51.653 168.436 51.4081 168.598C51.166 168.757 50.9785 168.965 50.8456 169.223C50.7155 169.478 50.6503 169.755 50.6503 170.055V170.739C50.6503 171.14 50.7206 171.481 50.8613 171.762C51.0045 172.043 51.2038 172.258 51.459 172.406C51.7141 172.552 52.0123 172.625 52.3535 172.625C52.5748 172.625 52.7766 172.594 52.959 172.531C53.1413 172.466 53.2988 172.37 53.4316 172.242C53.5644 172.115 53.666 171.957 53.7363 171.77L54.8417 171.969C54.7532 172.295 54.5943 172.58 54.3652 172.824C54.1386 173.067 53.8535 173.255 53.5098 173.391C53.1687 173.524 52.7792 173.59 52.3417 173.59ZM57.5019 173.469L55.7363 167.469H56.9433L58.1191 171.875H58.1777L59.3574 167.469H60.5644L61.7363 171.856H61.7949L62.9628 167.469H64.1699L62.4081 173.469H61.2167L59.998 169.137H59.9081L58.6894 173.469H57.5019Z" fill="#A1A1A6"/>
<mask id="mask0_242_336" style="mask-type:luminance" maskUnits="userSpaceOnUse" x="14" y="63" width="128" height="80">
<path d="M136.66 63.4697H19.6602C16.8987 63.4697 14.6602 65.7083 14.6602 68.4697V137.845C14.6602 140.606 16.8987 142.845 19.6602 142.845H136.66C139.422 142.845 141.66 140.606 141.66 137.845V68.4697C141.66 65.7083 139.422 63.4697 136.66 63.4697Z" fill="white"/>
</mask>
<g mask="url(#mask0_242_336)">
<path d="M14.6602 68.4697C14.6602 65.7083 16.8988 63.4697 19.6602 63.4697H136.66C139.421 63.4697 141.66 65.7083 141.66 68.4697V137.845C141.66 140.606 139.421 142.845 136.66 142.845H19.6602C16.8988 142.845 14.6602 140.606 14.6602 137.845V68.4697Z" fill="#0A0A0D"/>
<path d="M29.5026 77.8816C30.2617 77.8816 30.8772 77.2496 30.8772 76.4699C30.8772 75.6902 30.2617 75.0581 29.5026 75.0581C28.7434 75.0581 28.1279 75.6902 28.1279 76.4699C28.1279 77.2496 28.7434 77.8816 29.5026 77.8816Z" fill="url(#paint0_linear_242_336)"/>
<path d="M33.8007 78.9423C32.9571 80.4857 31.3483 81.5285 29.5024 81.5285C26.782 81.5285 24.5766 79.2636 24.5766 76.4697C24.5766 73.6758 26.782 71.4109 29.5024 71.4109C31.3627 71.4109 32.9822 72.47 33.8202 74.0332L34.6602 73.6494C33.6773 71.7573 31.7363 70.4697 29.5024 70.4697C26.2758 70.4697 23.6602 73.156 23.6602 76.4697C23.6602 79.7834 26.2758 82.4697 29.5024 82.4697C31.7219 82.4697 33.6523 81.1985 34.6411 79.3264L33.8007 78.9423Z" fill="url(#paint1_linear_242_336)"/>
<path fill-rule="evenodd" clip-rule="evenodd" d="M33.1631 76.4697C33.1631 78.5408 31.5282 80.2197 29.5117 80.2197C27.4951 80.2197 25.8604 78.5408 25.8604 76.4697C25.8604 74.3986 27.4951 72.7197 29.5117 72.7197C31.5282 72.7197 33.1631 74.3986 33.1631 76.4697ZM32.3285 76.4697C32.3285 78.0674 31.0673 79.3626 29.5117 79.3626C27.956 79.3626 26.6949 78.0674 26.6949 76.4697C26.6949 74.872 27.956 73.5768 29.5117 73.5768C31.0673 73.5768 32.3285 74.872 32.3285 76.4697Z" fill="url(#paint2_linear_242_336)"/>
<g opacity="0.7">
<path d="M38.5394 109.026H25.5854C24.3879 109.026 23.4082 108.052 23.4082 106.861V98.6707C23.4082 97.48 24.3879 96.5059 25.5854 96.5059H38.5394C39.7368 96.5059 40.7165 97.48 40.7165 98.6707V106.861C40.7165 108.088 39.7731 109.026 38.5394 109.026Z" fill="#D5D5D7" stroke="#808285" stroke-width="0.5" stroke-miterlimit="10"/>
<path d="M33.5681 104.263H30.4112C30.1209 104.263 29.9395 104.083 29.9395 103.794V101.738C29.9395 101.449 30.1209 101.269 30.4112 101.269H33.5681C33.8584 101.269 34.0398 101.449 34.0398 101.738V103.794C34.0035 104.047 33.8221 104.263 33.5681 104.263Z" fill="#D5D5D7" stroke="#808285" stroke-width="0.5" stroke-miterlimit="10"/>
<path d="M23.4082 102.207H29.9397M23.4082 103.289H29.9397M34.0762 102.207H40.6439M34.0762 103.289H40.6439M32.0079 101.269V96.4697M32.0079 109.062V104.299M32.0805 99.0674H40.6439M23.4082 106.428H32.0805" stroke="#808285" stroke-width="0.5" stroke-miterlimit="10"/>
</g>
<path d="M121.323 72.9577L118.605 79.3802H116.829L115.483 74.2422C115.403 73.921 115.322 73.814 115.08 73.6802C114.676 73.4661 114.003 73.252 113.438 73.145L113.465 72.9577H116.318C116.667 72.9577 117.017 73.1985 117.098 73.5999L117.798 77.3196L119.547 72.9577H121.323ZM128.24 77.2928C128.24 75.6069 125.872 75.4999 125.899 74.7506C125.899 74.5098 126.114 74.2689 126.598 74.2154C126.841 74.1886 127.487 74.1619 128.24 74.5098L128.536 73.145C128.132 73.0112 127.621 72.8506 126.975 72.8506C125.333 72.8506 124.149 73.7337 124.149 74.9647C124.149 75.9013 124.984 76.4098 125.603 76.7041C126.249 77.0252 126.464 77.2126 126.464 77.5069C126.464 77.9351 125.953 78.1224 125.468 78.1224C124.634 78.1492 124.149 77.9083 123.746 77.721L123.45 79.1393C123.853 79.3266 124.553 79.4604 125.307 79.4872C127.083 79.4872 128.24 78.6309 128.24 77.2928ZM132.6 79.3802H134.134L132.788 72.9577H131.362C131.039 72.9577 130.77 73.145 130.662 73.4394L128.159 79.4069H129.909L130.259 78.4435H132.412L132.6 79.3802ZM130.743 77.1055L131.631 74.6971L132.143 77.1055H130.743ZM123.719 72.9577L122.346 79.3802H120.677L122.05 72.9577H123.719Z" fill="url(#paint3_linear_242_336)"/>
<g opacity="0.6">
<path d="M132.796 107.36C132.724 107.36 132.651 107.36 132.615 107.324C132.433 107.216 132.361 106.963 132.47 106.783C133.159 105.592 133.522 104.258 133.522 102.923C133.522 101.588 133.159 100.216 132.47 99.0617C132.361 98.8814 132.433 98.6288 132.615 98.5206C132.796 98.4123 133.05 98.4845 133.159 98.6649C133.921 99.9637 134.32 101.443 134.32 102.923C134.32 104.402 133.921 105.881 133.159 107.18C133.087 107.288 132.941 107.36 132.796 107.36Z" fill="#76777A"/>
<path d="M131.201 106.458C131.128 106.458 131.055 106.458 131.019 106.422C130.838 106.314 130.765 106.061 130.874 105.881C131.418 104.979 131.672 103.933 131.672 102.923C131.672 101.876 131.382 100.866 130.874 99.9636C130.765 99.7832 130.838 99.5307 131.019 99.4224C131.201 99.3142 131.455 99.3864 131.563 99.5668C132.18 100.577 132.471 101.768 132.471 102.923C132.471 104.113 132.144 105.268 131.563 106.278C131.455 106.386 131.346 106.458 131.201 106.458ZM129.568 105.556C129.495 105.556 129.423 105.556 129.386 105.52C129.205 105.412 129.132 105.159 129.241 104.979C129.604 104.33 129.822 103.644 129.822 102.886C129.822 102.165 129.64 101.443 129.241 100.794C129.132 100.613 129.205 100.361 129.386 100.252C129.568 100.144 129.822 100.216 129.931 100.397C130.366 101.155 130.62 102.021 130.62 102.886C130.62 103.752 130.366 104.618 129.931 105.376C129.858 105.484 129.713 105.556 129.568 105.556ZM127.971 104.654C127.899 104.654 127.826 104.618 127.753 104.582C127.572 104.474 127.5 104.221 127.608 104.041C127.826 103.68 127.935 103.283 127.935 102.85C127.935 102.454 127.826 102.021 127.608 101.66C127.5 101.479 127.536 101.227 127.753 101.119C127.935 101.01 128.189 101.046 128.298 101.263C128.588 101.732 128.769 102.309 128.769 102.85C128.769 103.392 128.624 103.969 128.298 104.438C128.225 104.618 128.116 104.654 127.971 104.654Z" fill="#76777A"/>
</g>
<path d="M44.1401 132.55C43.8996 132.548 43.6647 132.499 43.4356 132.405C43.2064 132.308 43 132.154 42.8162 131.942C42.6325 131.728 42.4867 131.445 42.3788 131.095C42.2708 130.745 42.2168 130.314 42.2168 129.802C42.2168 129.329 42.2585 128.895 42.3418 128.501C42.4252 128.107 42.5502 127.766 42.7168 127.479C42.8835 127.191 43.0918 126.968 43.3418 126.811C43.5918 126.652 43.8844 126.572 44.2197 126.572C44.5341 126.572 44.8115 126.638 45.052 126.768C45.2926 126.897 45.4877 127.077 45.6373 127.308C45.7869 127.539 45.8806 127.805 45.9185 128.106H45.3958C45.3428 127.8 45.2168 127.547 45.018 127.348C44.8191 127.149 44.553 127.05 44.2197 127.05C43.7424 127.05 43.3731 127.271 43.1117 127.714C42.8503 128.156 42.7187 128.782 42.7168 129.595H42.7538C42.8466 129.423 42.9659 129.274 43.1117 129.149C43.2594 129.022 43.427 128.924 43.6145 128.854C43.802 128.782 43.999 128.746 44.2055 128.746C44.5293 128.746 44.8257 128.828 45.0947 128.993C45.3636 129.156 45.5786 129.38 45.7395 129.666C45.9005 129.95 45.981 130.275 45.981 130.64C45.981 130.987 45.9043 131.306 45.7509 131.598C45.5994 131.89 45.3854 132.122 45.1089 132.294C44.8342 132.466 44.5113 132.551 44.1401 132.55ZM44.1401 132.072C44.3939 132.072 44.6202 132.008 44.8191 131.879C45.0198 131.75 45.178 131.578 45.2935 131.362C45.4091 131.144 45.4668 130.904 45.4668 130.64C45.4668 130.377 45.4091 130.139 45.2935 129.925C45.178 129.711 45.0198 129.54 44.8191 129.413C44.6202 129.286 44.3939 129.223 44.1401 129.223C43.9469 129.223 43.767 129.263 43.6003 129.342C43.4337 129.42 43.2888 129.527 43.1657 129.663C43.0445 129.798 42.9517 129.952 42.8873 130.126C42.8248 130.3 42.8011 130.483 42.8162 130.675C42.8371 130.942 42.9062 131.181 43.0236 131.393C43.143 131.604 43.2983 131.769 43.4895 131.89C43.6827 132.012 43.8996 132.072 44.1401 132.072ZM47.3503 132.47L50.0009 127.166V127.129H46.9469V126.652H50.5577V127.152L47.91 132.47H47.3503ZM53.3624 126.572C53.6048 126.574 53.8397 126.623 54.067 126.72C54.2961 126.815 54.5026 126.968 54.6863 127.18C54.87 127.39 55.0158 127.671 55.1238 128.021C55.2317 128.37 55.2857 128.799 55.2857 129.308C55.2857 129.783 55.244 130.219 55.1607 130.615C55.0774 131.011 54.9524 131.354 54.7857 131.643C54.6209 131.931 54.4126 132.155 54.1607 132.314C53.9107 132.471 53.6181 132.55 53.2829 132.55C52.9704 132.55 52.6929 132.484 52.4505 132.354C52.21 132.223 52.0149 132.042 51.8653 131.811C51.7156 131.578 51.6228 131.309 51.5868 131.004H52.1096C52.1607 131.315 52.2857 131.57 52.4846 131.771C52.6853 131.972 52.9514 132.072 53.2829 132.072C53.7582 132.072 54.1276 131.851 54.3908 131.408C54.6541 130.964 54.7857 130.334 54.7857 129.515H54.7488C54.6579 129.686 54.5386 129.835 54.3908 129.961C54.245 130.088 54.0783 130.188 53.8908 130.26C53.7033 130.33 53.5054 130.365 53.2971 130.365C52.9732 130.365 52.6768 130.283 52.4079 130.121C52.1389 129.956 51.924 129.731 51.763 129.447C51.602 129.161 51.5215 128.836 51.5215 128.47C51.5215 128.125 51.5973 127.809 51.7488 127.521C51.9022 127.231 52.1162 127 52.3908 126.828C52.6673 126.654 52.9912 126.568 53.3624 126.572ZM53.3624 127.05C53.1105 127.05 52.8842 127.114 52.6834 127.243C52.4846 127.37 52.3264 127.541 52.209 127.757C52.0935 127.971 52.0357 128.209 52.0357 128.47C52.0357 128.733 52.0935 128.973 52.209 129.189C52.3264 129.403 52.4846 129.573 52.6834 129.7C52.8842 129.825 53.1105 129.888 53.3624 129.888C53.5556 129.888 53.7355 129.849 53.9022 129.771C54.0689 129.692 54.2128 129.584 54.334 129.447C54.4571 129.311 54.5499 129.157 54.6124 128.984C54.6768 128.81 54.7024 128.627 54.6891 128.436C54.6664 128.171 54.5954 127.934 54.4761 127.726C54.3586 127.515 54.2033 127.351 54.0101 127.231C53.8189 127.11 53.6029 127.05 53.3624 127.05ZM58.3766 132.55C58.0187 132.55 57.6986 132.485 57.4164 132.356C57.1342 132.226 56.9107 132.045 56.7459 131.814C56.5812 131.583 56.494 131.317 56.4846 131.015H57.0215C57.031 131.228 57.0963 131.413 57.2175 131.572C57.3387 131.729 57.4997 131.853 57.7005 131.942C57.9012 132.029 58.1247 132.072 58.3709 132.072C58.6399 132.072 58.8766 132.022 59.0812 131.922C59.2876 131.821 59.4486 131.684 59.5641 131.51C59.6815 131.334 59.7403 131.135 59.7403 130.913C59.7403 130.678 59.6806 130.471 59.5613 130.291C59.442 130.111 59.2706 129.971 59.0471 129.871C58.8255 129.77 58.5603 129.72 58.2516 129.72H57.9107V129.243H58.2516C58.5035 129.243 58.7261 129.197 58.9192 129.106C59.1143 129.014 59.2677 128.884 59.3795 128.717C59.4912 128.55 59.5471 128.354 59.5471 128.129C59.5471 127.915 59.4988 127.727 59.4022 127.564C59.3056 127.401 59.1692 127.273 58.9931 127.18C58.8189 127.087 58.6153 127.041 58.3823 127.041C58.1569 127.041 57.9505 127.085 57.763 127.172C57.5755 127.259 57.424 127.382 57.3084 127.541C57.1948 127.7 57.1342 127.889 57.1266 128.106H56.6124C56.62 127.803 56.7033 127.537 56.8624 127.308C57.0234 127.077 57.2365 126.897 57.5016 126.768C57.7687 126.638 58.0641 126.572 58.388 126.572C58.7308 126.572 59.0272 126.642 59.2772 126.782C59.5272 126.923 59.7204 127.109 59.8567 127.342C59.995 127.573 60.0641 127.828 60.0641 128.106C60.0641 128.438 59.9742 128.722 59.7942 128.959C59.6143 129.193 59.3719 129.356 59.067 129.447V129.484C59.4382 129.558 59.7298 129.723 59.942 129.979C60.156 130.232 60.263 130.544 60.263 130.913C60.263 131.224 60.1815 131.503 60.0187 131.751C59.8558 131.997 59.6323 132.193 59.3482 132.336C59.066 132.479 58.7421 132.55 58.3766 132.55Z" fill="#A1A1A6"/>
<path d="M24.6602 130.47C25.2124 130.47 25.6602 130.022 25.6602 129.47C25.6602 128.917 25.2124 128.47 24.6602 128.47C24.1079 128.47 23.6602 128.917 23.6602 129.47C23.6602 130.022 24.1079 130.47 24.6602 130.47Z" fill="#A1A1A6"/>
<path d="M28.6602 130.47C29.2124 130.47 29.6602 130.022 29.6602 129.47C29.6602 128.917 29.2124 128.47 28.6602 128.47C28.1079 128.47 27.6602 128.917 27.6602 129.47C27.6602 130.022 28.1079 130.47 28.6602 130.47Z" fill="#A1A1A6"/>
<path d="M32.6602 130.47C33.2124 130.47 33.6602 130.022 33.6602 129.47C33.6602 128.917 33.2124 128.47 32.6602 128.47C32.1079 128.47 31.6602 128.917 31.6602 129.47C31.6602 130.022 32.1079 130.47 32.6602 130.47Z" fill="#A1A1A6"/>
<path d="M36.6602 130.47C37.2124 130.47 37.6602 130.022 37.6602 129.47C37.6602 128.917 37.2124 128.47 36.6602 128.47C36.1079 128.47 35.6602 128.917 35.6602 129.47C35.6602 130.022 36.1079 130.47 36.6602 130.47Z" fill="#A1A1A6"/>
</g>
<path d="M148.66 165.47H100.66C100.108 165.47 99.6602 165.917 99.6602 166.47V172.47C99.6602 173.022 100.108 173.47 100.66 173.47H148.66C149.212 173.47 149.66 173.022 149.66 172.47V166.47C149.66 165.917 149.212 165.47 148.66 165.47Z" fill="white" fill-opacity="0.04"/>
<path d="M147.66 184.47H16.6602C15.5556 184.47 14.6602 185.365 14.6602 186.47V262.47C14.6602 263.574 15.5556 264.47 16.6602 264.47H147.66C148.765 264.47 149.66 263.574 149.66 262.47V186.47C149.66 185.365 148.765 184.47 147.66 184.47Z" fill="white" fill-opacity="0.04"/>
<path d="M40.274 200.561C40.274 201.175 40.1632 201.705 39.9416 202.152C39.7201 202.599 39.4161 202.943 39.0297 203.186C38.6434 203.428 38.2021 203.55 37.7059 203.55C37.2096 203.55 36.7684 203.428 36.382 203.186C35.9956 202.943 35.6917 202.599 35.4701 202.152C35.2485 201.705 35.1377 201.175 35.1377 200.561C35.1377 199.947 35.2485 199.417 35.4701 198.97C35.6917 198.523 35.9956 198.178 36.382 197.936C36.7684 197.693 37.2096 197.572 37.7059 197.572C38.2021 197.572 38.6434 197.693 39.0297 197.936C39.4161 198.178 39.7201 198.523 39.9416 198.97C40.1632 199.417 40.274 199.947 40.274 200.561ZM39.5922 200.561C39.5922 200.057 39.5079 199.632 39.3394 199.285C39.1727 198.939 38.9464 198.676 38.6604 198.498C38.3763 198.32 38.0581 198.231 37.7059 198.231C37.3536 198.231 37.0345 198.32 36.7485 198.498C36.4644 198.676 36.2381 198.939 36.0695 199.285C35.9028 199.632 35.8195 200.057 35.8195 200.561C35.8195 201.065 35.9028 201.49 36.0695 201.836C36.2381 202.183 36.4644 202.445 36.7485 202.623C37.0345 202.801 37.3536 202.89 37.7059 202.89C38.0581 202.89 38.3763 202.801 38.6604 202.623C38.9464 202.445 39.1727 202.183 39.3394 201.836C39.5079 201.49 39.5922 201.065 39.5922 200.561ZM43.311 199.106V199.675H40.9587V199.106H43.311ZM41.6632 203.47V198.504C41.6632 198.254 41.722 198.046 41.8394 197.879C41.9568 197.712 42.1093 197.587 42.2968 197.504C42.4843 197.421 42.6822 197.379 42.8905 197.379C43.0553 197.379 43.1898 197.392 43.2939 197.419C43.3981 197.445 43.4757 197.47 43.5269 197.493L43.3337 198.072C43.2996 198.061 43.2523 198.047 43.1916 198.03C43.1329 198.013 43.0553 198.004 42.9587 198.004C42.7371 198.004 42.5771 198.06 42.4786 198.172C42.382 198.283 42.3337 198.447 42.3337 198.663V203.47H41.6632ZM46.1938 199.106V199.675H43.8415V199.106H46.1938ZM44.5461 203.47V198.504C44.5461 198.254 44.6048 198.046 44.7222 197.879C44.8396 197.712 44.9921 197.587 45.1796 197.504C45.3671 197.421 45.565 197.379 45.7733 197.379C45.9381 197.379 46.0726 197.392 46.1767 197.419C46.2809 197.445 46.3586 197.47 46.4097 197.493L46.2165 198.072C46.1824 198.061 46.1351 198.047 46.0745 198.03C46.0158 198.013 45.9381 198.004 45.8415 198.004C45.6199 198.004 45.4599 198.06 45.3614 198.172C45.2648 198.283 45.2165 198.447 45.2165 198.663V203.47H44.5461ZM47.1334 203.47V199.106H47.8039V203.47H47.1334ZM47.4743 198.379C47.3436 198.379 47.2309 198.335 47.1363 198.246C47.0434 198.157 46.997 198.05 46.997 197.925C46.997 197.8 47.0434 197.693 47.1363 197.604C47.2309 197.515 47.3436 197.47 47.4743 197.47C47.605 197.47 47.7167 197.515 47.8095 197.604C47.9042 197.693 47.9516 197.8 47.9516 197.925C47.9516 198.05 47.9042 198.157 47.8095 198.246C47.7167 198.335 47.605 198.379 47.4743 198.379ZM50.8046 203.561C50.3955 203.561 50.0432 203.464 49.7478 203.271C49.4523 203.078 49.225 202.812 49.0659 202.473C48.9068 202.134 48.8273 201.747 48.8273 201.311C48.8273 200.868 48.9087 200.477 49.0716 200.138C49.2364 199.797 49.4656 199.531 49.7591 199.339C50.0546 199.146 50.3993 199.05 50.7932 199.05C51.1 199.05 51.3765 199.106 51.6228 199.22C51.869 199.334 52.0707 199.493 52.2279 199.697C52.3851 199.902 52.4826 200.14 52.5205 200.413H51.85C51.7989 200.214 51.6853 200.038 51.5091 199.885C51.3349 199.729 51.1 199.652 50.8046 199.652C50.5432 199.652 50.314 199.72 50.1171 199.856C49.922 199.991 49.7695 200.181 49.6597 200.427C49.5517 200.672 49.4978 200.959 49.4978 201.288C49.4978 201.625 49.5508 201.919 49.6568 202.169C49.7648 202.419 49.9163 202.613 50.1114 202.751C50.3084 202.89 50.5394 202.959 50.8046 202.959C50.9788 202.959 51.137 202.928 51.279 202.868C51.4211 202.807 51.5413 202.72 51.6398 202.606C51.7383 202.493 51.8084 202.356 51.85 202.197H52.5205C52.4826 202.455 52.3889 202.687 52.2392 202.893C52.0915 203.098 51.8955 203.261 51.6512 203.382C51.4087 203.501 51.1265 203.561 50.8046 203.561ZM55.3301 203.561C54.9097 203.561 54.547 203.468 54.2421 203.282C53.939 203.095 53.7051 202.834 53.5404 202.498C53.3775 202.161 53.2961 201.769 53.2961 201.322C53.2961 200.875 53.3775 200.481 53.5404 200.14C53.7051 199.798 53.9343 199.531 54.2279 199.339C54.5233 199.146 54.868 199.05 55.262 199.05C55.4892 199.05 55.7137 199.087 55.9353 199.163C56.1568 199.239 56.3586 199.362 56.5404 199.532C56.7222 199.701 56.8671 199.925 56.975 200.203C57.083 200.481 57.137 200.824 57.137 201.231V201.515H53.7733V200.936H56.4551C56.4551 200.69 56.4059 200.47 56.3074 200.277C56.2108 200.084 56.0726 199.931 55.8926 199.819C55.7146 199.708 55.5044 199.652 55.262 199.652C54.9949 199.652 54.7639 199.718 54.5688 199.851C54.3756 199.981 54.2269 200.152 54.1228 200.362C54.0186 200.572 53.9665 200.798 53.9665 201.038V201.425C53.9665 201.754 54.0233 202.033 54.137 202.263C54.2525 202.49 54.4125 202.663 54.6171 202.782C54.8216 202.9 55.0593 202.959 55.3301 202.959C55.5063 202.959 55.6654 202.934 55.8074 202.885C55.9514 202.834 56.0754 202.758 56.1796 202.658C56.2837 202.555 56.3642 202.428 56.4211 202.277L57.0688 202.459C57.0006 202.678 56.886 202.872 56.725 203.038C56.564 203.203 56.3652 203.332 56.1284 203.425C55.8917 203.515 55.6256 203.561 55.3301 203.561ZM63.4978 200.084L62.8955 200.254C62.8576 200.154 62.8017 200.056 62.7279 199.961C62.6559 199.865 62.5574 199.785 62.4324 199.723C62.3074 199.66 62.1474 199.629 61.9523 199.629C61.6853 199.629 61.4627 199.691 61.2847 199.814C61.1086 199.935 61.0205 200.089 61.0205 200.277C61.0205 200.443 61.0811 200.575 61.2023 200.672C61.3235 200.768 61.5129 200.849 61.7705 200.913L62.4182 201.072C62.8084 201.167 63.0991 201.312 63.2904 201.507C63.4817 201.7 63.5773 201.949 63.5773 202.254C63.5773 202.504 63.5053 202.728 63.3614 202.925C63.2193 203.122 63.0205 203.277 62.7648 203.39C62.5091 203.504 62.2118 203.561 61.8728 203.561C61.4277 203.561 61.0593 203.464 60.7676 203.271C60.476 203.078 60.2913 202.796 60.2137 202.425L60.85 202.265C60.9106 202.5 61.0252 202.676 61.1938 202.794C61.3642 202.911 61.5868 202.97 61.8614 202.97C62.1739 202.97 62.422 202.904 62.6057 202.771C62.7913 202.637 62.8841 202.476 62.8841 202.288C62.8841 202.137 62.8311 202.01 62.725 201.908C62.619 201.803 62.4561 201.726 62.2364 201.675L61.5091 201.504C61.1095 201.409 60.8159 201.263 60.6284 201.064C60.4428 200.863 60.35 200.612 60.35 200.311C60.35 200.065 60.4192 199.847 60.5574 199.658C60.6976 199.468 60.8879 199.319 61.1284 199.211C61.3709 199.104 61.6455 199.05 61.9523 199.05C62.3841 199.05 62.7231 199.144 62.9693 199.334C63.2175 199.523 63.3936 199.773 63.4978 200.084ZM67.3365 201.686V199.106H68.007V203.47H67.3365V202.731H67.2911C67.1888 202.953 67.0297 203.141 66.8138 203.297C66.5979 203.45 66.3252 203.527 65.9956 203.527C65.7229 203.527 65.4805 203.467 65.2684 203.348C65.0562 203.227 64.8896 203.045 64.7684 202.802C64.6471 202.558 64.5865 202.25 64.5865 201.879V199.106H65.257V201.834C65.257 202.152 65.346 202.406 65.524 202.595C65.704 202.784 65.9331 202.879 66.2115 202.879C66.3782 202.879 66.5477 202.836 66.7201 202.751C66.8943 202.666 67.0401 202.535 67.1576 202.359C67.2769 202.183 67.3365 201.959 67.3365 201.686ZM69.235 205.106V199.106H69.8827V199.8H69.9622C70.0115 199.724 70.0797 199.627 70.1668 199.51C70.2558 199.39 70.3827 199.284 70.5475 199.192C70.7141 199.097 70.9395 199.05 71.2236 199.05C71.591 199.05 71.9149 199.141 72.1952 199.325C72.4755 199.509 72.6943 199.769 72.8515 200.106C73.0086 200.443 73.0872 200.841 73.0872 201.3C73.0872 201.762 73.0086 202.162 72.8515 202.501C72.6943 202.838 72.4765 203.1 72.198 203.285C71.9196 203.469 71.5986 203.561 71.235 203.561C70.9547 203.561 70.7302 203.515 70.5617 203.422C70.3931 203.327 70.2634 203.22 70.1725 203.101C70.0816 202.979 70.0115 202.879 69.9622 202.8H69.9054V205.106H69.235ZM69.8941 201.288C69.8941 201.618 69.9424 201.908 70.039 202.16C70.1355 202.41 70.2766 202.606 70.4622 202.748C70.6479 202.889 70.8751 202.959 71.1441 202.959C71.4244 202.959 71.6583 202.885 71.8458 202.737C72.0352 202.587 72.1772 202.387 72.2719 202.135C72.3685 201.881 72.4168 201.599 72.4168 201.288C72.4168 200.981 72.3694 200.705 72.2747 200.459C72.1819 200.211 72.0408 200.015 71.8515 199.871C71.664 199.725 71.4282 199.652 71.1441 199.652C70.8713 199.652 70.6422 199.721 70.4566 199.859C70.271 199.996 70.1308 200.187 70.0361 200.433C69.9414 200.677 69.8941 200.962 69.8941 201.288ZM74.11 205.106V199.106H74.7577V199.8H74.8372C74.8865 199.724 74.9547 199.627 75.0418 199.51C75.1308 199.39 75.2577 199.284 75.4225 199.192C75.5891 199.097 75.8145 199.05 76.0986 199.05C76.466 199.05 76.7899 199.141 77.0702 199.325C77.3505 199.509 77.5693 199.769 77.7265 200.106C77.8836 200.443 77.9622 200.841 77.9622 201.3C77.9622 201.762 77.8836 202.162 77.7265 202.501C77.5693 202.838 77.3515 203.1 77.073 203.285C76.7946 203.469 76.4736 203.561 76.11 203.561C75.8297 203.561 75.6052 203.515 75.4367 203.422C75.2681 203.327 75.1384 203.22 75.0475 203.101C74.9566 202.979 74.8865 202.879 74.8372 202.8H74.7804V205.106H74.11ZM74.7691 201.288C74.7691 201.618 74.8174 201.908 74.914 202.16C75.0105 202.41 75.1516 202.606 75.3372 202.748C75.5229 202.889 75.7501 202.959 76.0191 202.959C76.2994 202.959 76.5333 202.885 76.7208 202.737C76.9102 202.587 77.0522 202.387 77.1469 202.135C77.2435 201.881 77.2918 201.599 77.2918 201.288C77.2918 200.981 77.2444 200.705 77.1497 200.459C77.0569 200.211 76.9158 200.015 76.7265 199.871C76.539 199.725 76.3032 199.652 76.0191 199.652C75.7463 199.652 75.5172 199.721 75.3316 199.859C75.146 199.996 75.0058 200.187 74.9111 200.433C74.8164 200.677 74.7691 200.962 74.7691 201.288ZM79.6554 197.652V203.47H78.985V197.652H79.6554ZM80.8834 203.47V199.106H81.5539V203.47H80.8834ZM81.2243 198.379C81.0936 198.379 80.9809 198.335 80.8863 198.246C80.7934 198.157 80.747 198.05 80.747 197.925C80.747 197.8 80.7934 197.693 80.8863 197.604C80.9809 197.515 81.0936 197.47 81.2243 197.47C81.355 197.47 81.4667 197.515 81.5595 197.604C81.6542 197.693 81.7016 197.8 81.7016 197.925C81.7016 198.05 81.6542 198.157 81.5595 198.246C81.4667 198.335 81.355 198.379 81.2243 198.379ZM84.6114 203.561C84.1909 203.561 83.8283 203.468 83.5233 203.282C83.2203 203.095 82.9864 202.834 82.8216 202.498C82.6587 202.161 82.5773 201.769 82.5773 201.322C82.5773 200.875 82.6587 200.481 82.8216 200.14C82.9864 199.798 83.2156 199.531 83.5091 199.339C83.8046 199.146 84.1493 199.05 84.5432 199.05C84.7705 199.05 84.9949 199.087 85.2165 199.163C85.4381 199.239 85.6398 199.362 85.8216 199.532C86.0034 199.701 86.1483 199.925 86.2563 200.203C86.3642 200.481 86.4182 200.824 86.4182 201.231V201.515H83.0546V200.936H85.7364C85.7364 200.69 85.6872 200.47 85.5887 200.277C85.4921 200.084 85.3538 199.931 85.1739 199.819C84.9959 199.708 84.7856 199.652 84.5432 199.652C84.2762 199.652 84.0451 199.718 83.85 199.851C83.6568 199.981 83.5082 200.152 83.404 200.362C83.2998 200.572 83.2478 200.798 83.2478 201.038V201.425C83.2478 201.754 83.3046 202.033 83.4182 202.263C83.5337 202.49 83.6938 202.663 83.8983 202.782C84.1029 202.9 84.3406 202.959 84.6114 202.959C84.7875 202.959 84.9466 202.934 85.0887 202.885C85.2326 202.834 85.3567 202.758 85.4608 202.658C85.565 202.555 85.6455 202.428 85.7023 202.277L86.35 202.459C86.2818 202.678 86.1673 202.872 86.0063 203.038C85.8453 203.203 85.6464 203.332 85.4097 203.425C85.1729 203.515 84.9068 203.561 84.6114 203.561ZM90.529 200.084L89.9267 200.254C89.8889 200.154 89.833 200.056 89.7591 199.961C89.6872 199.865 89.5887 199.785 89.4637 199.723C89.3387 199.66 89.1786 199.629 88.9836 199.629C88.7165 199.629 88.494 199.691 88.3159 199.814C88.1398 199.935 88.0517 200.089 88.0517 200.277C88.0517 200.443 88.1123 200.575 88.2336 200.672C88.3548 200.768 88.5442 200.849 88.8017 200.913L89.4495 201.072C89.8396 201.167 90.1303 201.312 90.3216 201.507C90.5129 201.7 90.6086 201.949 90.6086 202.254C90.6086 202.504 90.5366 202.728 90.3926 202.925C90.2506 203.122 90.0517 203.277 89.7961 203.39C89.5404 203.504 89.243 203.561 88.904 203.561C88.4589 203.561 88.0906 203.464 87.7989 203.271C87.5072 203.078 87.3226 202.796 87.2449 202.425L87.8813 202.265C87.9419 202.5 88.0565 202.676 88.225 202.794C88.3955 202.911 88.618 202.97 88.8926 202.97C89.2051 202.97 89.4533 202.904 89.637 202.771C89.8226 202.637 89.9154 202.476 89.9154 202.288C89.9154 202.137 89.8623 202.01 89.7563 201.908C89.6502 201.803 89.4873 201.726 89.2676 201.675L88.5404 201.504C88.1408 201.409 87.8472 201.263 87.6597 201.064C87.4741 200.863 87.3813 200.612 87.3813 200.311C87.3813 200.065 87.4504 199.847 87.5887 199.658C87.7288 199.468 87.9192 199.319 88.1597 199.211C88.4021 199.104 88.6767 199.05 88.9836 199.05C89.4154 199.05 89.7544 199.144 90.0006 199.334C90.2487 199.523 90.4248 199.773 90.529 200.084Z" fill="#A1A1A6"/>
<path d="M122.275 204.197V196.925H122.741V204.197H122.275ZM123.843 199.106C123.809 198.818 123.671 198.595 123.428 198.436C123.186 198.277 122.889 198.197 122.536 198.197C122.279 198.197 122.053 198.239 121.86 198.322C121.669 198.406 121.519 198.52 121.411 198.666C121.305 198.812 121.252 198.978 121.252 199.163C121.252 199.318 121.289 199.452 121.363 199.564C121.439 199.674 121.535 199.765 121.653 199.839C121.77 199.911 121.893 199.971 122.022 200.018C122.151 200.064 122.269 200.101 122.377 200.129L122.968 200.288C123.12 200.328 123.288 200.383 123.474 200.453C123.661 200.523 123.84 200.619 124.011 200.74C124.183 200.859 124.325 201.013 124.437 201.2C124.549 201.388 124.605 201.618 124.605 201.89C124.605 202.205 124.522 202.489 124.357 202.743C124.195 202.997 123.956 203.198 123.642 203.348C123.329 203.497 122.949 203.572 122.502 203.572C122.086 203.572 121.725 203.505 121.42 203.371C121.117 203.236 120.878 203.049 120.704 202.808C120.532 202.568 120.434 202.288 120.411 201.97H121.139C121.158 202.19 121.231 202.372 121.36 202.515C121.491 202.657 121.656 202.764 121.855 202.834C122.055 202.902 122.271 202.936 122.502 202.936C122.771 202.936 123.013 202.892 123.227 202.805C123.441 202.716 123.61 202.593 123.735 202.436C123.86 202.277 123.923 202.091 123.923 201.879C123.923 201.686 123.869 201.529 123.761 201.408C123.653 201.286 123.511 201.188 123.335 201.112C123.159 201.036 122.968 200.97 122.764 200.913L122.048 200.709C121.593 200.578 121.233 200.391 120.968 200.149C120.703 199.907 120.571 199.589 120.571 199.197C120.571 198.872 120.659 198.587 120.835 198.345C121.013 198.101 121.251 197.911 121.551 197.777C121.852 197.64 122.188 197.572 122.559 197.572C122.934 197.572 123.267 197.64 123.559 197.774C123.851 197.907 124.082 198.088 124.252 198.319C124.425 198.55 124.516 198.813 124.525 199.106H123.843ZM127.706 197.652V203.47H127.002V198.39H126.968L125.547 199.334V198.618L127.002 197.652H127.706ZM131.243 203.55C130.853 203.55 130.508 203.48 130.209 203.342C129.912 203.202 129.68 203.01 129.513 202.765C129.346 202.519 129.264 202.239 129.266 201.925C129.264 201.678 129.312 201.451 129.411 201.243C129.509 201.032 129.644 200.857 129.814 200.717C129.986 200.575 130.179 200.485 130.391 200.447V200.413C130.112 200.341 129.891 200.185 129.726 199.944C129.561 199.702 129.48 199.426 129.482 199.118C129.48 198.822 129.555 198.558 129.706 198.325C129.858 198.092 130.066 197.908 130.331 197.774C130.598 197.64 130.902 197.572 131.243 197.572C131.58 197.572 131.881 197.64 132.147 197.774C132.412 197.908 132.62 198.092 132.772 198.325C132.925 198.558 133.003 198.822 133.004 199.118C133.003 199.426 132.918 199.702 132.752 199.944C132.587 200.185 132.368 200.341 132.095 200.413V200.447C132.306 200.485 132.495 200.575 132.664 200.717C132.832 200.857 132.967 201.032 133.067 201.243C133.167 201.451 133.218 201.678 133.22 201.925C133.218 202.239 133.133 202.519 132.965 202.765C132.798 203.01 132.566 203.202 132.269 203.342C131.973 203.48 131.631 203.55 131.243 203.55ZM131.243 202.925C131.506 202.925 131.734 202.882 131.925 202.797C132.116 202.711 132.264 202.591 132.368 202.436C132.472 202.281 132.525 202.099 132.527 201.89C132.525 201.671 132.468 201.477 132.357 201.308C132.245 201.14 132.093 201.007 131.899 200.91C131.708 200.814 131.489 200.765 131.243 200.765C130.995 200.765 130.773 200.814 130.578 200.91C130.385 201.007 130.233 201.14 130.121 201.308C130.011 201.477 129.957 201.671 129.959 201.89C129.957 202.099 130.007 202.281 130.11 202.436C130.214 202.591 130.362 202.711 130.556 202.797C130.749 202.882 130.978 202.925 131.243 202.925ZM131.243 200.163C131.451 200.163 131.636 200.122 131.797 200.038C131.96 199.955 132.088 199.838 132.181 199.689C132.273 199.539 132.321 199.364 132.323 199.163C132.321 198.966 132.274 198.795 132.183 198.649C132.093 198.501 131.967 198.388 131.806 198.308C131.645 198.227 131.457 198.186 131.243 198.186C131.025 198.186 130.835 198.227 130.672 198.308C130.509 198.388 130.383 198.501 130.294 198.649C130.205 198.795 130.162 198.966 130.164 199.163C130.162 199.364 130.206 199.539 130.297 199.689C130.39 199.838 130.518 199.955 130.681 200.038C130.843 200.122 131.031 200.163 131.243 200.163ZM134.629 203.515C134.489 203.515 134.369 203.465 134.269 203.365C134.168 203.265 134.118 203.144 134.118 203.004C134.118 202.864 134.168 202.744 134.269 202.643C134.369 202.543 134.489 202.493 134.629 202.493C134.77 202.493 134.89 202.543 134.99 202.643C135.091 202.744 135.141 202.864 135.141 203.004C135.141 203.097 135.117 203.182 135.07 203.26C135.024 203.337 134.963 203.4 134.885 203.447C134.809 203.493 134.724 203.515 134.629 203.515ZM138.13 197.572C138.369 197.574 138.607 197.62 138.846 197.709C139.085 197.798 139.303 197.945 139.499 198.152C139.696 198.356 139.855 198.636 139.974 198.99C140.093 199.344 140.153 199.788 140.153 200.322C140.153 200.839 140.104 201.299 140.005 201.7C139.909 202.1 139.768 202.437 139.585 202.711C139.403 202.986 139.181 203.194 138.92 203.336C138.66 203.479 138.367 203.55 138.039 203.55C137.714 203.55 137.423 203.485 137.167 203.356C136.913 203.226 136.705 203.045 136.542 202.814C136.381 202.581 136.278 202.311 136.232 202.004H136.926C136.988 202.271 137.112 202.492 137.298 202.666C137.485 202.838 137.732 202.925 138.039 202.925C138.488 202.925 138.842 202.729 139.102 202.336C139.363 201.944 139.494 201.39 139.494 200.675H139.448C139.342 200.834 139.216 200.971 139.071 201.086C138.925 201.202 138.763 201.291 138.585 201.354C138.407 201.416 138.217 201.447 138.017 201.447C137.683 201.447 137.377 201.365 137.099 201.2C136.822 201.033 136.601 200.805 136.434 200.515C136.269 200.224 136.187 199.89 136.187 199.515C136.187 199.159 136.267 198.834 136.426 198.538C136.587 198.241 136.812 198.004 137.102 197.828C137.393 197.652 137.736 197.567 138.13 197.572ZM138.13 198.197C137.892 198.197 137.677 198.257 137.485 198.376C137.296 198.494 137.145 198.653 137.034 198.854C136.924 199.052 136.869 199.273 136.869 199.515C136.869 199.758 136.922 199.979 137.028 200.177C137.136 200.374 137.283 200.532 137.468 200.649C137.656 200.765 137.869 200.822 138.107 200.822C138.287 200.822 138.455 200.787 138.61 200.717C138.766 200.645 138.901 200.548 139.017 200.425C139.134 200.3 139.226 200.158 139.292 200.001C139.358 199.842 139.392 199.676 139.392 199.504C139.392 199.277 139.337 199.064 139.227 198.865C139.119 198.666 138.969 198.505 138.778 198.382C138.589 198.259 138.373 198.197 138.13 198.197ZM143.122 197.572C143.361 197.574 143.6 197.62 143.838 197.709C144.077 197.798 144.295 197.945 144.492 198.152C144.689 198.356 144.847 198.636 144.966 198.99C145.085 199.344 145.145 199.788 145.145 200.322C145.145 200.839 145.096 201.299 144.997 201.7C144.901 202.1 144.761 202.437 144.577 202.711C144.395 202.986 144.173 203.194 143.912 203.336C143.653 203.479 143.359 203.55 143.031 203.55C142.706 203.55 142.415 203.485 142.159 203.356C141.906 203.226 141.697 203.045 141.534 202.814C141.373 202.581 141.27 202.311 141.225 202.004H141.918C141.98 202.271 142.104 202.492 142.29 202.666C142.477 202.838 142.725 202.925 143.031 202.925C143.48 202.925 143.834 202.729 144.094 202.336C144.355 201.944 144.486 201.39 144.486 200.675H144.441C144.334 200.834 144.209 200.971 144.063 201.086C143.917 201.202 143.755 201.291 143.577 201.354C143.399 201.416 143.209 201.447 143.009 201.447C142.675 201.447 142.37 201.365 142.091 201.2C141.815 201.033 141.593 200.805 141.426 200.515C141.262 200.224 141.179 199.89 141.179 199.515C141.179 199.159 141.259 198.834 141.418 198.538C141.579 198.241 141.804 198.004 142.094 197.828C142.386 197.652 142.728 197.567 143.122 197.572ZM143.122 198.197C142.884 198.197 142.669 198.257 142.477 198.376C142.288 198.494 142.138 198.653 142.026 198.854C141.916 199.052 141.861 199.273 141.861 199.515C141.861 199.758 141.914 199.979 142.02 200.177C142.128 200.374 142.275 200.532 142.46 200.649C142.648 200.765 142.861 200.822 143.1 200.822C143.28 200.822 143.447 200.787 143.602 200.717C143.758 200.645 143.893 200.548 144.009 200.425C144.126 200.3 144.218 200.158 144.284 200.001C144.351 199.842 144.384 199.676 144.384 199.504C144.384 199.277 144.329 199.064 144.219 198.865C144.111 198.666 143.961 198.505 143.77 198.382C143.581 198.259 143.365 198.197 143.122 198.197Z" fill="#A1A1A6"/>
<path d="M113.978 228.197V220.925H114.444V228.197H113.978ZM115.546 223.106C115.512 222.818 115.374 222.595 115.132 222.436C114.889 222.277 114.592 222.197 114.24 222.197C113.982 222.197 113.757 222.239 113.563 222.322C113.372 222.406 113.223 222.52 113.115 222.666C113.008 222.812 112.955 222.978 112.955 223.163C112.955 223.318 112.992 223.452 113.066 223.564C113.142 223.674 113.239 223.765 113.356 223.839C113.473 223.911 113.597 223.971 113.725 224.018C113.854 224.064 113.972 224.101 114.08 224.129L114.671 224.288C114.823 224.328 114.991 224.383 115.177 224.453C115.365 224.523 115.544 224.619 115.714 224.74C115.886 224.859 116.028 225.013 116.14 225.2C116.252 225.388 116.308 225.618 116.308 225.89C116.308 226.205 116.225 226.489 116.061 226.743C115.898 226.997 115.659 227.198 115.345 227.348C115.032 227.497 114.652 227.572 114.205 227.572C113.789 227.572 113.428 227.505 113.123 227.371C112.82 227.236 112.581 227.049 112.407 226.808C112.235 226.568 112.137 226.288 112.115 225.97H112.842C112.861 226.19 112.935 226.372 113.063 226.515C113.194 226.657 113.359 226.764 113.558 226.834C113.758 226.902 113.974 226.936 114.205 226.936C114.474 226.936 114.716 226.892 114.93 226.805C115.144 226.716 115.313 226.593 115.438 226.436C115.563 226.277 115.626 226.091 115.626 225.879C115.626 225.686 115.572 225.529 115.464 225.408C115.356 225.286 115.214 225.188 115.038 225.112C114.862 225.036 114.671 224.97 114.467 224.913L113.751 224.709C113.296 224.578 112.937 224.391 112.671 224.149C112.406 223.907 112.274 223.589 112.274 223.197C112.274 222.872 112.362 222.587 112.538 222.345C112.716 222.101 112.955 221.911 113.254 221.777C113.555 221.64 113.891 221.572 114.262 221.572C114.637 221.572 114.971 221.64 115.262 221.774C115.554 221.907 115.785 222.088 115.955 222.319C116.128 222.55 116.219 222.813 116.228 223.106H115.546ZM119.409 221.652V227.47H118.705V222.39H118.671L117.25 223.334V222.618L118.705 221.652H119.409ZM121.083 227.47V226.959L123.003 224.856C123.228 224.61 123.414 224.396 123.56 224.214C123.706 224.031 123.814 223.858 123.884 223.697C123.956 223.534 123.992 223.364 123.992 223.186C123.992 222.981 123.942 222.804 123.844 222.655C123.747 222.505 123.615 222.39 123.446 222.308C123.278 222.227 123.088 222.186 122.878 222.186C122.655 222.186 122.459 222.232 122.293 222.325C122.128 222.416 122 222.544 121.909 222.709C121.82 222.873 121.776 223.067 121.776 223.288H121.105C121.105 222.947 121.184 222.648 121.341 222.39C121.498 222.133 121.712 221.932 121.983 221.788C122.256 221.644 122.562 221.572 122.901 221.572C123.242 221.572 123.544 221.644 123.807 221.788C124.07 221.932 124.277 222.126 124.426 222.371C124.576 222.615 124.651 222.887 124.651 223.186C124.651 223.4 124.612 223.609 124.534 223.814C124.459 224.016 124.326 224.243 124.137 224.493C123.949 224.741 123.689 225.044 123.355 225.402L122.048 226.8V226.845H124.753V227.47H121.083ZM127.745 227.55C127.411 227.55 127.111 227.483 126.844 227.351C126.577 227.218 126.363 227.036 126.202 226.805C126.041 226.574 125.953 226.311 125.938 226.015H126.62C126.646 226.279 126.765 226.497 126.977 226.669C127.191 226.839 127.447 226.925 127.745 226.925C127.983 226.925 128.195 226.869 128.381 226.757C128.568 226.645 128.715 226.492 128.821 226.297C128.929 226.1 128.983 225.877 128.983 225.629C128.983 225.375 128.927 225.149 128.816 224.95C128.706 224.749 128.554 224.591 128.361 224.476C128.168 224.36 127.947 224.301 127.699 224.3C127.521 224.298 127.338 224.325 127.151 224.382C126.963 224.437 126.809 224.508 126.688 224.595L126.029 224.515L126.381 221.652H129.404V222.277H126.972L126.767 223.993H126.801C126.921 223.898 127.07 223.819 127.25 223.757C127.43 223.694 127.618 223.663 127.813 223.663C128.169 223.663 128.486 223.748 128.764 223.919C129.045 224.087 129.264 224.318 129.423 224.612C129.584 224.906 129.665 225.241 129.665 225.618C129.665 225.989 129.582 226.32 129.415 226.612C129.25 226.902 129.023 227.131 128.733 227.3C128.443 227.466 128.114 227.55 127.745 227.55ZM132.691 227.55C132.263 227.55 131.899 227.433 131.598 227.2C131.296 226.965 131.066 226.625 130.907 226.18C130.748 225.733 130.669 225.193 130.669 224.561C130.669 223.932 130.748 223.395 130.907 222.95C131.068 222.503 131.299 222.162 131.6 221.927C131.903 221.691 132.267 221.572 132.691 221.572C133.115 221.572 133.478 221.691 133.779 221.927C134.082 222.162 134.313 222.503 134.472 222.95C134.633 223.395 134.714 223.932 134.714 224.561C134.714 225.193 134.634 225.733 134.475 226.18C134.316 226.625 134.086 226.965 133.785 227.2C133.484 227.433 133.119 227.55 132.691 227.55ZM132.691 226.925C133.115 226.925 133.445 226.72 133.68 226.311C133.915 225.902 134.032 225.318 134.032 224.561C134.032 224.057 133.978 223.628 133.87 223.274C133.764 222.92 133.611 222.65 133.41 222.464C133.211 222.279 132.972 222.186 132.691 222.186C132.271 222.186 131.942 222.393 131.705 222.808C131.469 223.221 131.35 223.805 131.35 224.561C131.35 225.065 131.403 225.493 131.509 225.845C131.615 226.197 131.768 226.465 131.967 226.649C132.168 226.833 132.409 226.925 132.691 226.925ZM136.09 227.515C135.95 227.515 135.83 227.465 135.73 227.365C135.629 227.265 135.579 227.144 135.579 227.004C135.579 226.864 135.629 226.744 135.73 226.643C135.83 226.543 135.95 226.493 136.09 226.493C136.231 226.493 136.351 226.543 136.451 226.643C136.552 226.744 136.602 226.864 136.602 227.004C136.602 227.097 136.578 227.182 136.531 227.26C136.485 227.337 136.424 227.4 136.346 227.447C136.27 227.493 136.185 227.515 136.09 227.515ZM139.495 227.55C139.161 227.55 138.861 227.483 138.594 227.351C138.327 227.218 138.113 227.036 137.952 226.805C137.791 226.574 137.703 226.311 137.688 226.015H138.37C138.396 226.279 138.515 226.497 138.727 226.669C138.941 226.839 139.197 226.925 139.495 226.925C139.733 226.925 139.945 226.869 140.131 226.757C140.318 226.645 140.465 226.492 140.571 226.297C140.679 226.1 140.733 225.877 140.733 225.629C140.733 225.375 140.677 225.149 140.566 224.95C140.456 224.749 140.304 224.591 140.111 224.476C139.918 224.36 139.697 224.301 139.449 224.3C139.271 224.298 139.088 224.325 138.901 224.382C138.713 224.437 138.559 224.508 138.438 224.595L137.779 224.515L138.131 221.652H141.154V222.277H138.722L138.517 223.993H138.551C138.671 223.898 138.82 223.819 139 223.757C139.18 223.694 139.368 223.663 139.563 223.663C139.919 223.663 140.236 223.748 140.514 223.919C140.795 224.087 141.014 224.318 141.173 224.612C141.334 224.906 141.415 225.241 141.415 225.618C141.415 225.989 141.332 226.32 141.165 226.612C141 226.902 140.773 227.131 140.483 227.3C140.193 227.466 139.864 227.55 139.495 227.55ZM144.589 221.652V227.47H143.884V222.39H143.85L142.43 223.334V222.618L143.884 221.652H144.589Z" fill="#A1A1A6"/>
<path d="M116.986 252.197V244.925H117.452V252.197H116.986ZM118.554 247.106C118.52 246.818 118.382 246.595 118.139 246.436C117.897 246.277 117.6 246.197 117.247 246.197C116.99 246.197 116.764 246.239 116.571 246.322C116.38 246.406 116.23 246.52 116.122 246.666C116.016 246.812 115.963 246.978 115.963 247.163C115.963 247.318 116 247.452 116.074 247.564C116.15 247.674 116.246 247.765 116.364 247.839C116.481 247.911 116.604 247.971 116.733 248.018C116.862 248.064 116.98 248.101 117.088 248.129L117.679 248.288C117.831 248.328 117.999 248.383 118.185 248.453C118.372 248.523 118.551 248.619 118.722 248.74C118.894 248.859 119.036 249.013 119.148 249.2C119.26 249.388 119.316 249.618 119.316 249.89C119.316 250.205 119.233 250.489 119.068 250.743C118.906 250.997 118.667 251.198 118.352 251.348C118.04 251.497 117.66 251.572 117.213 251.572C116.797 251.572 116.436 251.505 116.131 251.371C115.828 251.236 115.589 251.049 115.415 250.808C115.243 250.568 115.145 250.288 115.122 249.97H115.85C115.869 250.19 115.942 250.372 116.071 250.515C116.202 250.657 116.367 250.764 116.566 250.834C116.766 250.902 116.982 250.936 117.213 250.936C117.482 250.936 117.724 250.892 117.938 250.805C118.152 250.716 118.321 250.593 118.446 250.436C118.571 250.277 118.634 250.091 118.634 249.879C118.634 249.686 118.58 249.529 118.472 249.408C118.364 249.286 118.222 249.188 118.046 249.112C117.87 249.036 117.679 248.97 117.475 248.913L116.759 248.709C116.304 248.578 115.944 248.391 115.679 248.149C115.414 247.907 115.281 247.589 115.281 247.197C115.281 246.872 115.37 246.587 115.546 246.345C115.724 246.101 115.962 245.911 116.262 245.777C116.563 245.64 116.899 245.572 117.27 245.572C117.645 245.572 117.978 245.64 118.27 245.774C118.562 245.907 118.793 246.088 118.963 246.319C119.136 246.55 119.227 246.813 119.236 247.106H118.554ZM120.372 251.47V250.959L122.292 248.856C122.517 248.61 122.703 248.396 122.849 248.214C122.995 248.031 123.103 247.858 123.173 247.697C123.245 247.534 123.281 247.364 123.281 247.186C123.281 246.981 123.231 246.804 123.133 246.655C123.036 246.505 122.904 246.39 122.735 246.308C122.567 246.227 122.377 246.186 122.167 246.186C121.944 246.186 121.749 246.232 121.582 246.325C121.417 246.416 121.289 246.544 121.198 246.709C121.109 246.873 121.065 247.067 121.065 247.288H120.394C120.394 246.947 120.473 246.648 120.63 246.39C120.787 246.133 121.001 245.932 121.272 245.788C121.545 245.644 121.851 245.572 122.19 245.572C122.531 245.572 122.833 245.644 123.096 245.788C123.359 245.932 123.566 246.126 123.715 246.371C123.865 246.615 123.94 246.887 123.94 247.186C123.94 247.4 123.901 247.609 123.823 247.814C123.748 248.016 123.615 248.243 123.426 248.493C123.238 248.741 122.978 249.044 122.644 249.402L121.338 250.8V250.845H124.042V251.47H120.372ZM125.215 251.47V250.959L127.136 248.856C127.361 248.61 127.547 248.396 127.693 248.214C127.839 248.031 127.946 247.858 128.017 247.697C128.089 247.534 128.124 247.364 128.124 247.186C128.124 246.981 128.075 246.804 127.977 246.655C127.88 246.505 127.748 246.39 127.579 246.308C127.41 246.227 127.221 246.186 127.011 246.186C126.787 246.186 126.592 246.232 126.426 246.325C126.261 246.416 126.133 246.544 126.042 246.709C125.953 246.873 125.909 247.067 125.909 247.288H125.238C125.238 246.947 125.317 246.648 125.474 246.39C125.631 246.133 125.845 245.932 126.116 245.788C126.389 245.644 126.695 245.572 127.034 245.572C127.374 245.572 127.677 245.644 127.94 245.788C128.203 245.932 128.41 246.126 128.559 246.371C128.709 246.615 128.784 246.887 128.784 247.186C128.784 247.4 128.745 247.609 128.667 247.814C128.591 248.016 128.459 248.243 128.269 248.493C128.082 248.741 127.821 249.044 127.488 249.402L126.181 250.8V250.845H128.886V251.47H125.215ZM129.798 250.277V249.697L132.355 245.652H132.775V246.55H132.491L130.559 249.606V249.652H134.002V250.277H129.798ZM132.536 251.47V250.101V249.831V245.652H133.207V251.47H132.536ZM135.294 251.515C135.153 251.515 135.033 251.465 134.933 251.365C134.832 251.265 134.782 251.144 134.782 251.004C134.782 250.864 134.832 250.744 134.933 250.643C135.033 250.543 135.153 250.493 135.294 250.493C135.434 250.493 135.554 250.543 135.654 250.643C135.755 250.744 135.805 250.864 135.805 251.004C135.805 251.097 135.781 251.182 135.734 251.26C135.688 251.337 135.627 251.4 135.549 251.447C135.473 251.493 135.388 251.515 135.294 251.515ZM137.061 251.47L139.664 246.322V246.277H136.664V245.652H140.391V246.311L137.8 251.47H137.061ZM143.196 251.55C142.806 251.55 142.461 251.48 142.162 251.342C141.865 251.202 141.633 251.01 141.466 250.765C141.299 250.519 141.217 250.239 141.219 249.925C141.217 249.678 141.265 249.451 141.364 249.243C141.462 249.032 141.597 248.857 141.767 248.717C141.94 248.575 142.132 248.485 142.344 248.447V248.413C142.066 248.341 141.844 248.185 141.679 247.944C141.514 247.702 141.433 247.426 141.435 247.118C141.433 246.822 141.508 246.558 141.659 246.325C141.811 246.092 142.019 245.908 142.284 245.774C142.551 245.64 142.855 245.572 143.196 245.572C143.533 245.572 143.834 245.64 144.1 245.774C144.365 245.908 144.573 246.092 144.725 246.325C144.878 246.558 144.956 246.822 144.958 247.118C144.956 247.426 144.871 247.702 144.705 247.944C144.54 248.185 144.321 248.341 144.048 248.413V248.447C144.259 248.485 144.448 248.575 144.617 248.717C144.785 248.857 144.92 249.032 145.02 249.243C145.12 249.451 145.172 249.678 145.173 249.925C145.172 250.239 145.086 250.519 144.918 250.765C144.751 251.01 144.519 251.202 144.222 251.342C143.926 251.48 143.584 251.55 143.196 251.55ZM143.196 250.925C143.459 250.925 143.687 250.882 143.878 250.797C144.069 250.711 144.217 250.591 144.321 250.436C144.425 250.281 144.478 250.099 144.48 249.89C144.478 249.671 144.422 249.477 144.31 249.308C144.198 249.14 144.046 249.007 143.852 248.91C143.661 248.814 143.442 248.765 143.196 248.765C142.948 248.765 142.727 248.814 142.531 248.91C142.338 249.007 142.186 249.14 142.074 249.308C141.964 249.477 141.91 249.671 141.912 249.89C141.91 250.099 141.96 250.281 142.063 250.436C142.167 250.591 142.316 250.711 142.509 250.797C142.702 250.882 142.931 250.925 143.196 250.925ZM143.196 248.163C143.405 248.163 143.589 248.122 143.75 248.038C143.913 247.955 144.041 247.838 144.134 247.689C144.227 247.539 144.274 247.364 144.276 247.163C144.274 246.966 144.227 246.795 144.137 246.649C144.046 246.501 143.92 246.388 143.759 246.308C143.598 246.227 143.41 246.186 143.196 246.186C142.978 246.186 142.788 246.227 142.625 246.308C142.462 246.388 142.336 246.501 142.247 246.649C142.158 246.795 142.115 246.966 142.117 247.163C142.115 247.364 142.159 247.539 142.25 247.689C142.343 247.838 142.471 247.955 142.634 248.038C142.797 248.122 142.984 248.163 143.196 248.163Z" fill="#A1A1A6"/>
<path d="M35.0469 222.276V221.651H39.4105V222.276H37.581V227.469H36.8764V222.276H35.0469ZM39.9538 227.469V223.105H40.6016V223.764H40.647C40.7266 223.549 40.8705 223.373 41.0788 223.239C41.2872 223.104 41.522 223.037 41.7834 223.037C41.8326 223.037 41.8942 223.038 41.968 223.04C42.0419 223.042 42.0978 223.045 42.1356 223.049V223.73C42.1129 223.725 42.0608 223.716 41.9794 223.705C41.8998 223.692 41.8156 223.685 41.7266 223.685C41.5144 223.685 41.325 223.729 41.1584 223.818C40.9936 223.906 40.8629 224.027 40.7663 224.182C40.6716 224.335 40.6243 224.511 40.6243 224.708V227.469H39.9538ZM44.2145 227.571C43.938 227.571 43.687 227.519 43.4616 227.415C43.2363 227.309 43.0573 227.157 42.9247 226.958C42.7921 226.757 42.7258 226.514 42.7258 226.23C42.7258 225.98 42.7751 225.778 42.8736 225.622C42.9721 225.465 43.1037 225.342 43.2685 225.253C43.4332 225.164 43.615 225.098 43.8139 225.054C44.0147 225.009 44.2164 224.973 44.419 224.946C44.6842 224.912 44.8991 224.887 45.0639 224.87C45.2306 224.851 45.3518 224.819 45.4275 224.776C45.5052 224.732 45.544 224.656 45.544 224.549V224.526C45.544 224.246 45.4673 224.028 45.3139 223.872C45.1624 223.717 44.9323 223.639 44.6236 223.639C44.3035 223.639 44.0525 223.71 43.8707 223.85C43.6889 223.99 43.5611 224.139 43.4872 224.299L42.8508 224.071C42.9645 223.806 43.116 223.6 43.3054 223.452C43.4967 223.302 43.705 223.198 43.9304 223.139C44.1577 223.079 44.3811 223.049 44.6008 223.049C44.741 223.049 44.902 223.066 45.0838 223.1C45.2675 223.132 45.4446 223.199 45.615 223.301C45.7874 223.404 45.9304 223.558 46.044 223.764C46.1577 223.971 46.2145 224.247 46.2145 224.594V227.469H45.544V226.878H45.5099C45.4645 226.973 45.3887 227.074 45.2827 227.182C45.1766 227.29 45.0355 227.382 44.8594 227.458C44.6832 227.533 44.4683 227.571 44.2145 227.571ZM44.3167 226.969C44.5819 226.969 44.8054 226.917 44.9872 226.813C45.1709 226.709 45.3092 226.574 45.402 226.409C45.4967 226.245 45.544 226.071 45.544 225.889V225.276C45.5156 225.31 45.4531 225.341 45.3565 225.37C45.2618 225.396 45.152 225.42 45.027 225.441C44.9039 225.46 44.7836 225.477 44.6662 225.492C44.5507 225.505 44.4569 225.516 44.3849 225.526C44.2107 225.549 44.0478 225.585 43.8963 225.637C43.7467 225.686 43.6255 225.761 43.5327 225.861C43.4418 225.96 43.3963 226.094 43.3963 226.264C43.3963 226.497 43.4825 226.674 43.6548 226.793C43.8291 226.91 44.0497 226.969 44.3167 226.969ZM50.8501 223.105L49.2365 227.469H48.5547L46.941 223.105H47.6683L48.8729 226.583H48.9183L50.1229 223.105H50.8501ZM53.4084 227.56C52.9879 227.56 52.6252 227.467 52.3203 227.281C52.0173 227.094 51.7834 226.833 51.6186 226.497C51.4557 226.16 51.3743 225.768 51.3743 225.321C51.3743 224.874 51.4557 224.48 51.6186 224.139C51.7834 223.797 52.0125 223.53 52.3061 223.338C52.6016 223.145 52.9462 223.049 53.3402 223.049C53.5675 223.049 53.7919 223.086 54.0135 223.162C54.2351 223.238 54.4368 223.361 54.6186 223.531C54.8004 223.7 54.9453 223.924 55.0533 224.202C55.1612 224.48 55.2152 224.823 55.2152 225.23V225.514H51.8516V224.935H54.5334C54.5334 224.689 54.4841 224.469 54.3856 224.276C54.2891 224.083 54.1508 223.93 53.9709 223.818C53.7928 223.707 53.5826 223.651 53.3402 223.651C53.0731 223.651 52.8421 223.717 52.647 223.85C52.4538 223.98 52.3051 224.151 52.201 224.361C52.0968 224.571 52.0447 224.797 52.0447 225.037V225.424C52.0447 225.753 52.1016 226.032 52.2152 226.262C52.3307 226.489 52.4908 226.662 52.6953 226.781C52.8998 226.899 53.1375 226.958 53.4084 226.958C53.5845 226.958 53.7436 226.933 53.8856 226.884C54.0296 226.833 54.1536 226.757 54.2578 226.657C54.362 226.554 54.4425 226.427 54.4993 226.276L55.147 226.458C55.0788 226.677 54.9642 226.871 54.8033 227.037C54.6423 227.202 54.4434 227.331 54.2067 227.424C53.9699 227.514 53.7038 227.56 53.4084 227.56ZM56.9055 221.651V227.469H56.2351V221.651H56.9055Z" fill="#A1A1A6"/>
<path d="M38.5462 247.106C38.5121 246.818 38.3738 246.595 38.1314 246.436C37.889 246.277 37.5916 246.197 37.2393 246.197C36.9818 246.197 36.7564 246.239 36.5632 246.322C36.3719 246.406 36.2223 246.52 36.1143 246.666C36.0083 246.812 35.9553 246.978 35.9553 247.163C35.9553 247.318 35.9922 247.452 36.066 247.564C36.1418 247.674 36.2384 247.765 36.3558 247.839C36.4732 247.911 36.5964 247.971 36.7251 248.018C36.8539 248.064 36.9723 248.101 37.0803 248.129L37.6712 248.288C37.8227 248.328 37.9912 248.383 38.1768 248.453C38.3643 248.523 38.5433 248.619 38.7138 248.74C38.8861 248.859 39.0282 249.013 39.1399 249.2C39.2517 249.388 39.3075 249.618 39.3075 249.89C39.3075 250.205 39.2251 250.489 39.0604 250.743C38.8975 250.997 38.6589 251.198 38.3445 251.348C38.032 251.497 37.6522 251.572 37.2053 251.572C36.7886 251.572 36.4278 251.505 36.1229 251.371C35.8198 251.236 35.5812 251.049 35.407 250.808C35.2346 250.568 35.1371 250.288 35.1143 249.97H35.8416C35.8606 250.19 35.9344 250.372 36.0632 250.515C36.1939 250.657 36.3587 250.764 36.5575 250.834C36.7583 250.902 36.9742 250.936 37.2053 250.936C37.4742 250.936 37.7157 250.892 37.9297 250.805C38.1437 250.716 38.3132 250.593 38.4382 250.436C38.5632 250.277 38.6257 250.091 38.6257 249.879C38.6257 249.686 38.5717 249.529 38.4638 249.408C38.3558 249.286 38.2138 249.188 38.0376 249.112C37.8615 249.036 37.6712 248.97 37.4666 248.913L36.7507 248.709C36.2962 248.578 35.9363 248.391 35.6712 248.149C35.406 247.907 35.2734 247.589 35.2734 247.197C35.2734 246.872 35.3615 246.587 35.5376 246.345C35.7157 246.101 35.9543 245.911 36.2536 245.777C36.5547 245.64 36.8909 245.572 37.2621 245.572C37.6371 245.572 37.9704 245.64 38.2621 245.774C38.5537 245.907 38.7848 246.088 38.9553 246.319C39.1276 246.55 39.2185 246.813 39.228 247.106H38.5462ZM42.1477 251.561C41.7538 251.561 41.4081 251.467 41.1108 251.28C40.8153 251.092 40.5843 250.83 40.4176 250.493C40.2528 250.156 40.1705 249.762 40.1705 249.311C40.1705 248.856 40.2528 248.46 40.4176 248.121C40.5843 247.782 40.8153 247.518 41.1108 247.331C41.4081 247.143 41.7538 247.05 42.1477 247.05C42.5417 247.05 42.8864 247.143 43.1818 247.331C43.4792 247.518 43.7102 247.782 43.875 248.121C44.0417 248.46 44.125 248.856 44.125 249.311C44.125 249.762 44.0417 250.156 43.875 250.493C43.7102 250.83 43.4792 251.092 43.1818 251.28C42.8864 251.467 42.5417 251.561 42.1477 251.561ZM42.1477 250.959C42.447 250.959 42.6932 250.882 42.8864 250.729C43.0795 250.575 43.2225 250.373 43.3153 250.123C43.4081 249.873 43.4545 249.603 43.4545 249.311C43.4545 249.019 43.4081 248.747 43.3153 248.496C43.2225 248.244 43.0795 248.04 42.8864 247.885C42.6932 247.729 42.447 247.652 42.1477 247.652C41.8485 247.652 41.6023 247.729 41.4091 247.885C41.2159 248.04 41.0729 248.244 40.9801 248.496C40.8873 248.747 40.8409 249.019 40.8409 249.311C40.8409 249.603 40.8873 249.873 40.9801 250.123C41.0729 250.373 41.2159 250.575 41.4091 250.729C41.6023 250.882 41.8485 250.959 42.1477 250.959ZM47.0916 247.106V247.675H44.7393V247.106H47.0916ZM45.4439 251.47V246.504C45.4439 246.254 45.5026 246.046 45.62 245.879C45.7375 245.712 45.8899 245.587 46.0774 245.504C46.2649 245.421 46.4628 245.379 46.6712 245.379C46.8359 245.379 46.9704 245.392 47.0746 245.419C47.1787 245.445 47.2564 245.47 47.3075 245.493L47.1143 246.072C47.0803 246.061 47.0329 246.047 46.9723 246.03C46.9136 246.013 46.8359 246.004 46.7393 246.004C46.5178 246.004 46.3577 246.06 46.2592 246.172C46.1626 246.283 46.1143 246.447 46.1143 246.663V251.47H45.4439ZM49.929 247.106V247.675H47.6676V247.106H49.929ZM48.3267 246.061H48.9972V250.22C48.9972 250.409 49.0246 250.551 49.0795 250.646C49.1364 250.739 49.2083 250.801 49.2955 250.834C49.3845 250.864 49.4782 250.879 49.5767 250.879C49.6506 250.879 49.7112 250.875 49.7585 250.868C49.8059 250.858 49.8437 250.851 49.8722 250.845L50.0085 251.447C49.9631 251.464 49.8996 251.481 49.8182 251.498C49.7367 251.517 49.6335 251.527 49.5085 251.527C49.3191 251.527 49.1335 251.486 48.9517 251.405C48.7718 251.323 48.6222 251.199 48.5028 251.032C48.3854 250.866 48.3267 250.656 48.3267 250.402V246.061ZM51.9261 251.47L50.5966 247.106H51.3011L52.2443 250.447H52.2898L53.2216 247.106H53.9375L54.858 250.436H54.9034L55.8466 247.106H56.5511L55.2216 251.47H54.5625L53.608 248.118H53.5398L52.5852 251.47H51.9261ZM58.7216 251.572C58.4451 251.572 58.1941 251.52 57.9687 251.416C57.7434 251.31 57.5644 251.158 57.4318 250.959C57.2992 250.758 57.233 250.515 57.233 250.231C57.233 249.981 57.2822 249.779 57.3807 249.623C57.4792 249.466 57.6108 249.343 57.7756 249.254C57.9403 249.165 58.1222 249.099 58.321 249.055C58.5218 249.01 58.7235 248.974 58.9261 248.947C59.1913 248.913 59.4062 248.888 59.571 248.871C59.7377 248.852 59.8589 248.82 59.9347 248.777C60.0123 248.733 60.0511 248.657 60.0511 248.55V248.527C60.0511 248.247 59.9744 248.029 59.821 247.873C59.6695 247.718 59.4394 247.64 59.1307 247.64C58.8106 247.64 58.5597 247.711 58.3778 247.851C58.196 247.991 58.0682 248.14 57.9943 248.3L57.358 248.072C57.4716 247.807 57.6231 247.601 57.8125 247.453C58.0038 247.303 58.2121 247.199 58.4375 247.14C58.6648 247.08 58.8883 247.05 59.108 247.05C59.2481 247.05 59.4091 247.067 59.5909 247.101C59.7746 247.133 59.9517 247.2 60.1222 247.302C60.2945 247.405 60.4375 247.559 60.5511 247.765C60.6648 247.972 60.7216 248.248 60.7216 248.595V251.47H60.0511V250.879H60.017C59.9716 250.974 59.8958 251.075 59.7898 251.183C59.6837 251.291 59.5426 251.383 59.3665 251.459C59.1903 251.534 58.9754 251.572 58.7216 251.572ZM58.8239 250.97C59.089 250.97 59.3125 250.918 59.4943 250.814C59.678 250.71 59.8163 250.575 59.9091 250.41C60.0038 250.246 60.0511 250.072 60.0511 249.89V249.277C60.0227 249.311 59.9602 249.342 59.8636 249.371C59.7689 249.397 59.6591 249.421 59.5341 249.442C59.411 249.461 59.2907 249.478 59.1733 249.493C59.0578 249.506 58.964 249.517 58.892 249.527C58.7178 249.55 58.5549 249.586 58.4034 249.638C58.2538 249.687 58.1326 249.762 58.0398 249.862C57.9489 249.961 57.9034 250.095 57.9034 250.265C57.9034 250.498 57.9896 250.675 58.1619 250.794C58.3362 250.911 58.5568 250.97 58.8239 250.97ZM61.9453 251.47V247.106H62.593V247.765H62.6385C62.718 247.55 62.862 247.374 63.0703 247.24C63.2786 247.105 63.5135 247.038 63.7749 247.038C63.8241 247.038 63.8857 247.039 63.9595 247.041C64.0334 247.043 64.0893 247.046 64.1271 247.05V247.731C64.1044 247.726 64.0523 247.717 63.9709 247.706C63.8913 247.693 63.8071 247.686 63.718 247.686C63.5059 247.686 63.3165 247.73 63.1499 247.819C62.9851 247.907 62.8544 248.028 62.7578 248.183C62.6631 248.336 62.6158 248.512 62.6158 248.709V251.47H61.9453ZM66.6186 251.561C66.1982 251.561 65.8355 251.468 65.5305 251.282C65.2275 251.095 64.9936 250.834 64.8288 250.498C64.666 250.161 64.5845 249.769 64.5845 249.322C64.5845 248.875 64.666 248.481 64.8288 248.14C64.9936 247.798 65.2228 247.531 65.5163 247.339C65.8118 247.146 66.1565 247.05 66.5504 247.05C66.7777 247.05 67.0021 247.087 67.2237 247.163C67.4453 247.239 67.647 247.362 67.8288 247.532C68.0107 247.701 68.1555 247.925 68.2635 248.203C68.3714 248.481 68.4254 248.824 68.4254 249.231V249.515H65.0618V248.936H67.7436C67.7436 248.69 67.6944 248.47 67.5959 248.277C67.4993 248.084 67.361 247.931 67.1811 247.819C67.0031 247.708 66.7928 247.652 66.5504 247.652C66.2834 247.652 66.0523 247.718 65.8572 247.851C65.6641 247.981 65.5154 248.152 65.4112 248.362C65.3071 248.572 65.255 248.798 65.255 249.038V249.425C65.255 249.754 65.3118 250.033 65.4254 250.263C65.541 250.49 65.701 250.663 65.9055 250.782C66.1101 250.9 66.3478 250.959 66.6186 250.959C66.7947 250.959 66.9538 250.934 67.0959 250.885C67.2398 250.834 67.3639 250.758 67.468 250.658C67.5722 250.555 67.6527 250.428 67.7095 250.277L68.3572 250.459C68.2891 250.678 68.1745 250.872 68.0135 251.038C67.8525 251.203 67.6536 251.332 67.4169 251.425C67.1802 251.515 66.9141 251.561 66.6186 251.561Z" fill="#A1A1A6"/>
<path d="M28.6602 194.47H20.6602C19.5556 194.47 18.6602 195.365 18.6602 196.47V204.47C18.6602 205.574 19.5556 206.47 20.6602 206.47H28.6602C29.7647 206.47 30.6602 205.574 30.6602 204.47V196.47C30.6602 195.365 29.7647 194.47 28.6602 194.47Z" fill="#D9D9D9" fill-opacity="0.1"/>
<path d="M28.6602 218.47H20.6602C19.5556 218.47 18.6602 219.365 18.6602 220.47V228.47C18.6602 229.574 19.5556 230.47 20.6602 230.47H28.6602C29.7647 230.47 30.6602 229.574 30.6602 228.47V220.47C30.6602 219.365 29.7647 218.47 28.6602 218.47Z" fill="#D9D9D9" fill-opacity="0.1"/>
<path d="M28.6602 242.47H20.6602C19.5556 242.47 18.6602 243.365 18.6602 244.47V252.47C18.6602 253.574 19.5556 254.47 20.6602 254.47H28.6602C29.7647 254.47 30.6602 253.574 30.6602 252.47V244.47C30.6602 243.365 29.7647 242.47 28.6602 242.47Z" fill="#D9D9D9" fill-opacity="0.1"/>
<path d="M148.66 68.4697C148.66 65.7083 150.899 63.4697 153.66 63.4697H157.66V143.47H153.66C150.899 143.47 148.66 141.231 148.66 138.47V68.4697Z" fill="#0A0A0D"/>
<path d="M98.8602 12.4697H65.7602C61.977 12.4697 58.9102 15.5366 58.9102 19.3197C58.9102 23.1029 61.977 26.1697 65.7602 26.1697H98.8602C102.643 26.1697 105.71 23.1029 105.71 19.3197C105.71 15.5366 102.643 12.4697 98.8602 12.4697Z" fill="#010101"/>
</g>
</g>
</g>
<defs>
<linearGradient id="paint0_linear_242_336" x1="29.5026" y1="75.0581" x2="29.5026" y2="77.8817" gradientUnits="userSpaceOnUse">
<stop stop-color="#006ADC"/>
<stop offset="1" stop-color="#006ADC" stop-opacity="0.3"/>
</linearGradient>
<linearGradient id="paint1_linear_242_336" x1="29.1602" y1="82.4697" x2="29.1602" y2="70.4562" gradientUnits="userSpaceOnUse">
<stop stop-color="#373737"/>
<stop offset="0.308" stop-color="#666666"/>
<stop offset="0.691" stop-color="#9D9D9D"/>
<stop offset="1" stop-color="#BFBFBF"/>
</linearGradient>
<linearGradient id="paint2_linear_242_336" x1="29.1604" y1="82.4697" x2="29.1604" y2="70.4562" gradientUnits="userSpaceOnUse">
<stop stop-color="#373737"/>
<stop offset="0.308" stop-color="#666666"/>
<stop offset="0.691" stop-color="#9D9D9D"/>
<stop offset="1" stop-color="#BFBFBF"/>
</linearGradient>
<linearGradient id="paint3_linear_242_336" x1="123.786" y1="79.4872" x2="123.786" y2="72.8431" gradientUnits="userSpaceOnUse">
<stop stop-color="#373737"/>
<stop offset="0.308" stop-color="#666666"/>
<stop offset="0.691" stop-color="#9D9D9D"/>
<stop offset="1" stop-color="#BFBFBF"/>
</linearGradient>
<clipPath id="clip0_242_336">
<rect width="163" height="335" fill="white" transform="translate(0.660156 0.969727)"/>
</clipPath>
<clipPath id="clip1_242_336">
<rect width="163" height="335" fill="white" transform="translate(0.660156 0.969727)"/>
</clipPath>
<clipPath id="clip2_242_336">
<rect width="163" height="335" fill="white" transform="translate(0.660156 0.969727)"/>
</clipPath>
</defs>
</svg>
