<svg width="260" height="243" viewBox="0 0 260 243" fill="none" xmlns="http://www.w3.org/2000/svg">
<rect x="0.5" y="0.5" width="259" height="242" rx="15.5" fill="black"/>
<rect x="0.5" y="0.5" width="259" height="242" rx="15.5" stroke="black"/>
<path d="M48.0185 46.0696C47.8262 45.4664 47.5677 44.9261 47.2429 44.4489C46.9247 43.965 46.5436 43.554 46.0994 43.2159C45.6553 42.8712 45.1482 42.6094 44.5781 42.4304C44.0147 42.2514 43.3949 42.1619 42.7188 42.1619C41.572 42.1619 40.5379 42.4569 39.6165 43.0469C38.6951 43.6368 37.9659 44.5019 37.429 45.642C36.8987 46.7756 36.6335 48.1643 36.6335 49.8082C36.6335 51.4588 36.902 52.8542 37.4389 53.9943C37.9759 55.1345 38.7116 55.9995 39.6463 56.5895C40.581 57.1795 41.6449 57.4744 42.8381 57.4744C43.9451 57.4744 44.9096 57.2491 45.7315 56.7983C46.5601 56.3475 47.1998 55.7112 47.6506 54.8892C48.108 54.0606 48.3366 53.0862 48.3366 51.9659L49.1321 52.1151H43.3054V49.5795H51.3097V51.8963C51.3097 53.6065 50.9451 55.0914 50.2159 56.3509C49.4934 57.6037 48.4924 58.5715 47.2131 59.2543C45.9403 59.937 44.482 60.2784 42.8381 60.2784C40.9953 60.2784 39.3778 59.8542 37.9858 59.0057C36.6004 58.1572 35.5199 56.9541 34.7443 55.3963C33.9688 53.8319 33.581 51.9759 33.581 49.8281C33.581 48.2041 33.8063 46.7457 34.2571 45.4531C34.7079 44.1605 35.3409 43.0634 36.1562 42.1619C36.9782 41.2538 37.9427 40.5611 39.0497 40.0838C40.1634 39.5999 41.3797 39.358 42.6989 39.358C43.7992 39.358 44.8234 39.5204 45.7713 39.8452C46.7259 40.17 47.5743 40.6307 48.3168 41.2273C49.0658 41.8239 49.6856 42.5331 50.1761 43.3551C50.6667 44.1705 50.9981 45.0753 51.1705 46.0696H48.0185ZM60.9656 60.3082C59.4609 60.3082 58.165 59.9867 57.0778 59.3438C55.9973 58.6941 55.1621 57.7827 54.5722 56.6094C53.9888 55.4295 53.6972 54.0473 53.6972 52.4631C53.6972 50.8987 53.9888 49.5199 54.5722 48.3267C55.1621 47.1335 55.9841 46.2022 57.0381 45.5327C58.0987 44.8632 59.3383 44.5284 60.7568 44.5284C61.6186 44.5284 62.4538 44.6709 63.2625 44.956C64.0712 45.241 64.7971 45.6884 65.4401 46.2983C66.083 46.9081 66.5902 47.7003 66.9614 48.6747C67.3326 49.6425 67.5182 50.8191 67.5182 52.2045V53.2585H55.3776V51.0312H64.6048C64.6048 50.2491 64.4457 49.5563 64.1276 48.9531C63.8094 48.3433 63.3619 47.8627 62.7852 47.5114C62.2151 47.16 61.5456 46.9844 60.7767 46.9844C59.9415 46.9844 59.2123 47.1899 58.5892 47.6009C57.9727 48.0052 57.4955 48.5355 57.1574 49.1918C56.8259 49.8414 56.6602 50.5473 56.6602 51.3097V53.0497C56.6602 54.0705 56.8392 54.9389 57.1972 55.6548C57.5617 56.3707 58.0688 56.9176 58.7185 57.2955C59.3681 57.6667 60.1271 57.8523 60.9955 57.8523C61.5589 57.8523 62.0726 57.7727 62.5366 57.6136C63.0007 57.4479 63.4017 57.2027 63.7398 56.8778C64.0778 56.553 64.3364 56.152 64.5153 55.6747L67.3293 56.1818C67.1039 57.0104 66.6995 57.7363 66.1162 58.3594C65.5395 58.9759 64.8136 59.4564 63.9386 59.8011C63.0703 60.1392 62.0793 60.3082 60.9656 60.3082ZM77.3581 44.7273V47.1136H69.0158V44.7273H77.3581ZM71.253 41.0682H74.226V55.5156C74.226 56.0923 74.3122 56.5265 74.4845 56.8182C74.6569 57.1032 74.8789 57.2988 75.1507 57.4048C75.4291 57.5043 75.7307 57.554 76.0555 57.554C76.2942 57.554 76.503 57.5374 76.682 57.5043C76.8609 57.4711 77.0001 57.4446 77.0996 57.4247L77.6365 59.8807C77.4642 59.947 77.2189 60.0133 76.9007 60.0795C76.5825 60.1525 76.1848 60.1922 75.7075 60.1989C74.9253 60.2121 74.1962 60.0729 73.52 59.7812C72.8439 59.4896 72.297 59.0388 71.8794 58.429C71.4618 57.8191 71.253 57.0535 71.253 56.1321V41.0682ZM88.7602 65.7273C88.3161 65.7273 87.9117 65.6908 87.5471 65.6179C87.1826 65.5516 86.9108 65.4787 86.7318 65.3991L87.4477 62.9631C87.9913 63.1089 88.4752 63.1719 88.8994 63.152C89.3237 63.1321 89.6982 62.973 90.023 62.6747C90.3544 62.3764 90.6461 61.8892 90.898 61.2131L91.2659 60.1989L85.6778 44.7273H88.8596L92.7275 56.5795H92.8866L96.7545 44.7273H99.9463L93.6523 62.0384C93.3606 62.8338 92.9894 63.5066 92.5386 64.0568C92.0879 64.6136 91.5509 65.0313 90.9278 65.3097C90.3047 65.5881 89.5822 65.7273 88.7602 65.7273ZM108.066 60.3082C106.634 60.3082 105.385 59.9801 104.317 59.3239C103.25 58.6676 102.422 57.7495 101.832 56.5696C101.242 55.3897 100.947 54.0109 100.947 52.4332C100.947 50.849 101.242 49.4635 101.832 48.277C102.422 47.0904 103.25 46.169 104.317 45.5128C105.385 44.8565 106.634 44.5284 108.066 44.5284C109.498 44.5284 110.747 44.8565 111.815 45.5128C112.882 46.169 113.71 47.0904 114.3 48.277C114.89 49.4635 115.185 50.849 115.185 52.4332C115.185 54.0109 114.89 55.3897 114.3 56.5696C113.71 57.7495 112.882 58.6676 111.815 59.3239C110.747 59.9801 109.498 60.3082 108.066 60.3082ZM108.076 57.8125C109.004 57.8125 109.773 57.5672 110.383 57.0767C110.993 56.5862 111.443 55.9332 111.735 55.1179C112.033 54.3026 112.183 53.4044 112.183 52.4233C112.183 51.4489 112.033 50.554 111.735 49.7386C111.443 48.9167 110.993 48.2571 110.383 47.7599C109.773 47.2628 109.004 47.0142 108.076 47.0142C107.141 47.0142 106.366 47.2628 105.749 47.7599C105.139 48.2571 104.685 48.9167 104.387 49.7386C104.095 50.554 103.95 51.4489 103.95 52.4233C103.95 53.4044 104.095 54.3026 104.387 55.1179C104.685 55.9332 105.139 56.5862 105.749 57.0767C106.366 57.5672 107.141 57.8125 108.076 57.8125ZM127.591 53.6662V44.7273H130.574V60H127.65V57.3551H127.491C127.14 58.1705 126.576 58.8499 125.801 59.3935C125.032 59.9304 124.074 60.1989 122.927 60.1989C121.946 60.1989 121.078 59.9834 120.322 59.5526C119.573 59.1151 118.983 58.4688 118.552 57.6136C118.128 56.7585 117.916 55.7012 117.916 54.4418V44.7273H120.889V54.0838C120.889 55.1245 121.177 55.9531 121.754 56.5696C122.331 57.1861 123.08 57.4943 124.001 57.4943C124.558 57.4943 125.111 57.3551 125.662 57.0767C126.218 56.7983 126.679 56.3774 127.044 55.8139C127.415 55.2505 127.597 54.5346 127.591 53.6662ZM141.041 60V39.6364H144.113V57.3551H153.341V60H141.041ZM162.452 60.3082C161.021 60.3082 159.771 59.9801 158.704 59.3239C157.637 58.6676 156.808 57.7495 156.218 56.5696C155.628 55.3897 155.333 54.0109 155.333 52.4332C155.333 50.849 155.628 49.4635 156.218 48.277C156.808 47.0904 157.637 46.169 158.704 45.5128C159.771 44.8565 161.021 44.5284 162.452 44.5284C163.884 44.5284 165.134 44.8565 166.201 45.5128C167.268 46.169 168.097 47.0904 168.687 48.277C169.277 49.4635 169.572 50.849 169.572 52.4332C169.572 54.0109 169.277 55.3897 168.687 56.5696C168.097 57.7495 167.268 58.6676 166.201 59.3239C165.134 59.9801 163.884 60.3082 162.452 60.3082ZM162.462 57.8125C163.39 57.8125 164.159 57.5672 164.769 57.0767C165.379 56.5862 165.83 55.9332 166.121 55.1179C166.42 54.3026 166.569 53.4044 166.569 52.4233C166.569 51.4489 166.42 50.554 166.121 49.7386C165.83 48.9167 165.379 48.2571 164.769 47.7599C164.159 47.2628 163.39 47.0142 162.462 47.0142C161.528 47.0142 160.752 47.2628 160.136 47.7599C159.526 48.2571 159.072 48.9167 158.773 49.7386C158.482 50.554 158.336 51.4489 158.336 52.4233C158.336 53.4044 158.482 54.3026 158.773 55.1179C159.072 55.9332 159.526 56.5862 160.136 57.0767C160.752 57.5672 161.528 57.8125 162.462 57.8125ZM176.747 60.3381C175.779 60.3381 174.904 60.1591 174.122 59.8011C173.34 59.4366 172.72 58.9096 172.262 58.2202C171.812 57.5308 171.586 56.6856 171.586 55.6847C171.586 54.8229 171.752 54.1136 172.083 53.5568C172.415 53 172.862 52.5592 173.426 52.2344C173.989 51.9096 174.619 51.6643 175.315 51.4986C176.011 51.3329 176.72 51.2069 177.443 51.1207C178.358 51.0147 179.1 50.9285 179.67 50.8622C180.24 50.7893 180.654 50.6733 180.913 50.5142C181.171 50.3551 181.301 50.0966 181.301 49.7386V49.669C181.301 48.8007 181.055 48.1278 180.565 47.6506C180.081 47.1733 179.359 46.9347 178.397 46.9347C177.396 46.9347 176.608 47.1567 176.031 47.6009C175.461 48.0384 175.066 48.5256 174.848 49.0625L172.054 48.4261C172.385 47.4981 172.869 46.7491 173.505 46.179C174.148 45.6023 174.887 45.1847 175.723 44.9261C176.558 44.661 177.436 44.5284 178.358 44.5284C178.967 44.5284 179.614 44.6013 180.296 44.7472C180.986 44.8864 181.629 45.1449 182.225 45.5227C182.829 45.9006 183.323 46.4408 183.707 47.1435C184.091 47.8395 184.284 48.7443 184.284 49.858V60H181.38V57.9119H181.261C181.069 58.2964 180.78 58.6742 180.396 59.0455C180.011 59.4167 179.518 59.7249 178.914 59.9702C178.311 60.2154 177.589 60.3381 176.747 60.3381ZM177.393 57.9517C178.215 57.9517 178.918 57.7893 179.501 57.4645C180.091 57.1397 180.538 56.7154 180.843 56.1918C181.155 55.6615 181.311 55.0947 181.311 54.4915V52.5227C181.205 52.6288 180.999 52.7282 180.694 52.821C180.396 52.9072 180.055 52.9834 179.67 53.0497C179.286 53.1094 178.911 53.1657 178.546 53.2188C178.182 53.2652 177.877 53.3049 177.632 53.3381C177.055 53.411 176.528 53.5336 176.051 53.706C175.58 53.8783 175.202 54.1269 174.917 54.4517C174.639 54.7699 174.5 55.1941 174.5 55.7244C174.5 56.4602 174.771 57.017 175.315 57.3949C175.859 57.7661 176.551 57.9517 177.393 57.9517ZM190.629 50.9318V60H187.656V44.7273H190.509V47.2131H190.698C191.05 46.4044 191.6 45.7547 192.349 45.2642C193.104 44.7737 194.056 44.5284 195.202 44.5284C196.243 44.5284 197.155 44.7472 197.937 45.1847C198.719 45.6155 199.326 46.2585 199.756 47.1136C200.187 47.9687 200.403 49.026 200.403 50.2855V60H197.43V50.6435C197.43 49.5365 197.141 48.6714 196.565 48.0483C195.988 47.4186 195.196 47.1037 194.188 47.1037C193.499 47.1037 192.886 47.2528 192.349 47.5511C191.818 47.8494 191.398 48.2869 191.086 48.8636C190.781 49.4337 190.629 50.1231 190.629 50.9318ZM33.233 78.2812V75.6364H48.9929V78.2812H42.6392V96H39.5767V78.2812H33.233ZM55.8673 96.3082C54.4354 96.3082 53.1859 95.9801 52.1187 95.3239C51.0514 94.6676 50.2228 93.7495 49.6329 92.5696C49.0429 91.3897 48.7479 90.0109 48.7479 88.4332C48.7479 86.849 49.0429 85.4635 49.6329 84.277C50.2228 83.0904 51.0514 82.169 52.1187 81.5128C53.1859 80.8565 54.4354 80.5284 55.8673 80.5284C57.2991 80.5284 58.5486 80.8565 59.6158 81.5128C60.6831 82.169 61.5117 83.0904 62.1016 84.277C62.6916 85.4635 62.9866 86.849 62.9866 88.4332C62.9866 90.0109 62.6916 91.3897 62.1016 92.5696C61.5117 93.7495 60.6831 94.6676 59.6158 95.3239C58.5486 95.9801 57.2991 96.3082 55.8673 96.3082ZM55.8772 93.8125C56.8052 93.8125 57.5742 93.5672 58.184 93.0767C58.7939 92.5862 59.2446 91.9332 59.5363 91.1179C59.8346 90.3026 59.9837 89.4044 59.9837 88.4233C59.9837 87.4489 59.8346 86.554 59.5363 85.7386C59.2446 84.9167 58.7939 84.2571 58.184 83.7599C57.5742 83.2628 56.8052 83.0142 55.8772 83.0142C54.9425 83.0142 54.167 83.2628 53.5505 83.7599C52.9406 84.2571 52.4866 84.9167 52.1883 85.7386C51.8966 86.554 51.7508 87.4489 51.7508 88.4233C51.7508 89.4044 51.8966 90.3026 52.1883 91.1179C52.4866 91.9332 52.9406 92.5862 53.5505 93.0767C54.167 93.5672 54.9425 93.8125 55.8772 93.8125ZM71.4344 96.2983C70.2015 96.2983 69.1011 95.9834 68.1333 95.3537C67.1721 94.7173 66.4164 93.8125 65.8663 92.6392C65.3227 91.4593 65.0509 90.044 65.0509 88.3935C65.0509 86.7429 65.326 85.331 65.8762 84.1577C66.433 82.9844 67.1953 82.0862 68.1631 81.4631C69.1309 80.84 70.228 80.5284 71.4543 80.5284C72.4022 80.5284 73.1646 80.6875 73.7413 81.0057C74.3246 81.3172 74.7753 81.6818 75.0935 82.0994C75.4183 82.517 75.6702 82.8849 75.8492 83.2031H76.0282V75.6364H79.0012V96H76.0978V93.6236H75.8492C75.6702 93.9484 75.4117 94.3196 75.0736 94.7372C74.7422 95.1548 74.2848 95.5194 73.7015 95.831C73.1182 96.1425 72.3625 96.2983 71.4344 96.2983ZM72.0907 93.7628C72.9458 93.7628 73.6683 93.5374 74.2583 93.0866C74.8549 92.6293 75.3057 91.9962 75.6106 91.1875C75.9221 90.3788 76.0779 89.4375 76.0779 88.3636C76.0779 87.303 75.9254 86.375 75.6205 85.5795C75.3156 84.7841 74.8682 84.1643 74.2782 83.7202C73.6882 83.276 72.9591 83.054 72.0907 83.054C71.1958 83.054 70.4501 83.286 69.8535 83.75C69.2569 84.214 68.8061 84.8471 68.5012 85.6491C68.2029 86.4512 68.0538 87.3561 68.0538 88.3636C68.0538 89.3845 68.2062 90.3026 68.5111 91.1179C68.8161 91.9332 69.2668 92.5795 69.8634 93.0568C70.4666 93.5275 71.2091 93.7628 72.0907 93.7628ZM87.1011 96.3381C86.1333 96.3381 85.2583 96.1591 84.4761 95.8011C83.6939 95.4366 83.0741 94.9096 82.6167 94.2202C82.1659 93.5308 81.9405 92.6856 81.9405 91.6847C81.9405 90.8229 82.1063 90.1136 82.4377 89.5568C82.7691 89 83.2166 88.5592 83.78 88.2344C84.3435 87.9096 84.9732 87.6643 85.6692 87.4986C86.3653 87.3329 87.0745 87.2069 87.7971 87.1207C88.7119 87.0147 89.4543 86.9285 90.0244 86.8622C90.5944 86.7893 91.0087 86.6733 91.2673 86.5142C91.5258 86.3551 91.655 86.0966 91.655 85.7386V85.669C91.655 84.8007 91.4098 84.1278 90.9192 83.6506C90.4353 83.1733 89.7128 82.9347 88.7516 82.9347C87.7507 82.9347 86.9619 83.1567 86.3851 83.6009C85.8151 84.0384 85.4207 84.5256 85.2019 85.0625L82.4079 84.4261C82.7393 83.4981 83.2232 82.7491 83.8596 82.179C84.5026 81.6023 85.2417 81.1847 86.0769 80.9261C86.9121 80.661 87.7905 80.5284 88.7119 80.5284C89.3217 80.5284 89.968 80.6013 90.6508 80.7472C91.3402 80.8864 91.9832 81.1449 92.5798 81.5227C93.183 81.9006 93.6768 82.4408 94.0613 83.1435C94.4458 83.8395 94.638 84.7443 94.638 85.858V96H91.7346V93.9119H91.6153C91.423 94.2964 91.1347 94.6742 90.7502 95.0455C90.3657 95.4167 89.8719 95.7249 89.2687 95.9702C88.6655 96.2154 87.9429 96.3381 87.1011 96.3381ZM87.7474 93.9517C88.5693 93.9517 89.272 93.7893 89.8553 93.4645C90.4453 93.1397 90.8927 92.7154 91.1976 92.1918C91.5092 91.6615 91.665 91.0947 91.665 90.4915V88.5227C91.5589 88.6288 91.3534 88.7282 91.0485 88.821C90.7502 88.9072 90.4088 88.9834 90.0244 89.0497C89.6399 89.1094 89.2654 89.1657 88.9008 89.2188C88.5362 89.2652 88.2313 89.3049 87.986 89.3381C87.4093 89.411 86.8823 89.5336 86.405 89.706C85.9344 89.8783 85.5565 90.1269 85.2715 90.4517C84.9931 90.7699 84.8539 91.1941 84.8539 91.7244C84.8539 92.4602 85.1257 93.017 85.6692 93.3949C86.2128 93.7661 86.9055 93.9517 87.7474 93.9517ZM99.3422 101.727C98.8981 101.727 98.4938 101.691 98.1292 101.618C97.7646 101.552 97.4928 101.479 97.3138 101.399L98.0297 98.9631C98.5733 99.1089 99.0572 99.1719 99.4815 99.152C99.9057 99.1321 100.28 98.973 100.605 98.6747C100.936 98.3764 101.228 97.8892 101.48 97.2131L101.848 96.1989L96.2599 80.7273H99.4417L103.31 92.5795H103.469L107.337 80.7273H110.528L104.234 98.0384C103.943 98.8338 103.571 99.5066 103.121 100.057C102.67 100.614 102.133 101.031 101.51 101.31C100.887 101.588 100.164 101.727 99.3422 101.727ZM116.483 75.6364L116.224 90.1435H113.47L113.212 75.6364H116.483ZM114.852 96.1889C114.302 96.1889 113.831 95.9967 113.44 95.6122C113.049 95.2211 112.857 94.7505 112.864 94.2003C112.857 93.6567 113.049 93.1927 113.44 92.8082C113.831 92.4171 114.302 92.2216 114.852 92.2216C115.389 92.2216 115.853 92.4171 116.244 92.8082C116.635 93.1927 116.834 93.6567 116.841 94.2003C116.834 94.5649 116.738 94.8996 116.553 95.2045C116.374 95.5028 116.135 95.7415 115.837 95.9205C115.538 96.0994 115.21 96.1889 114.852 96.1889Z" fill="white"/>
<path d="M35.5227 136L32.3409 124.364H33.7727L36.2045 133.841H36.3182L38.7955 124.364H40.3864L42.8636 133.841H42.9773L45.4091 124.364H46.8409L43.6591 136H42.2045L39.6364 126.727H39.5455L36.9773 136H35.5227ZM51.1654 136.182C50.3245 136.182 49.5991 135.996 48.9892 135.625C48.3832 135.25 47.9154 134.727 47.5858 134.057C47.2601 133.383 47.0972 132.598 47.0972 131.705C47.0972 130.811 47.2601 130.023 47.5858 129.341C47.9154 128.655 48.3737 128.121 48.9608 127.739C49.5517 127.352 50.2411 127.159 51.029 127.159C51.4835 127.159 51.9324 127.235 52.3756 127.386C52.8188 127.538 53.2222 127.784 53.5858 128.125C53.9495 128.462 54.2392 128.909 54.4551 129.466C54.671 130.023 54.779 130.708 54.779 131.523V132.091H48.0517V130.932H53.4154C53.4154 130.439 53.3169 130 53.1199 129.614C52.9267 129.227 52.6502 128.922 52.2904 128.699C51.9343 128.475 51.5138 128.364 51.029 128.364C50.4949 128.364 50.0328 128.496 49.6426 128.761C49.2563 129.023 48.9589 129.364 48.7506 129.784C48.5423 130.205 48.4381 130.655 48.4381 131.136V131.909C48.4381 132.568 48.5517 133.127 48.779 133.585C49.0101 134.04 49.3301 134.386 49.7392 134.625C50.1483 134.86 50.6237 134.977 51.1654 134.977C51.5176 134.977 51.8358 134.928 52.1199 134.83C52.4078 134.727 52.6559 134.576 52.8642 134.375C53.0726 134.17 53.2335 133.917 53.3472 133.614L54.6426 133.977C54.5063 134.417 54.2771 134.803 53.9551 135.136C53.6332 135.466 53.2354 135.723 52.762 135.909C52.2885 136.091 51.7563 136.182 51.1654 136.182ZM64.6722 136.182C63.8843 136.182 63.1931 135.994 62.5984 135.619C62.0075 135.244 61.5453 134.72 61.212 134.045C60.8825 133.371 60.7177 132.583 60.7177 131.682C60.7177 130.773 60.8825 129.979 61.212 129.301C61.5453 128.623 62.0075 128.097 62.5984 127.722C63.1931 127.347 63.8843 127.159 64.6722 127.159C65.4601 127.159 66.1495 127.347 66.7404 127.722C67.3351 128.097 67.7972 128.623 68.1268 129.301C68.4601 129.979 68.6268 130.773 68.6268 131.682C68.6268 132.583 68.4601 133.371 68.1268 134.045C67.7972 134.72 67.3351 135.244 66.7404 135.619C66.1495 135.994 65.4601 136.182 64.6722 136.182ZM64.6722 134.977C65.2707 134.977 65.7631 134.824 66.1495 134.517C66.5359 134.21 66.8218 133.807 67.0075 133.307C67.1931 132.807 67.2859 132.265 67.2859 131.682C67.2859 131.098 67.1931 130.555 67.0075 130.051C66.8218 129.547 66.5359 129.14 66.1495 128.83C65.7631 128.519 65.2707 128.364 64.6722 128.364C64.0737 128.364 63.5813 128.519 63.195 128.83C62.8086 129.14 62.5226 129.547 62.337 130.051C62.1514 130.555 62.0586 131.098 62.0586 131.682C62.0586 132.265 62.1514 132.807 62.337 133.307C62.5226 133.807 62.8086 134.21 63.195 134.517C63.5813 134.824 64.0737 134.977 64.6722 134.977ZM74.464 127.273V128.409H69.7595V127.273H74.464ZM71.1686 136V126.068C71.1686 125.568 71.286 125.152 71.5208 124.818C71.7557 124.485 72.0606 124.235 72.4356 124.068C72.8106 123.902 73.2064 123.818 73.6231 123.818C73.9526 123.818 74.2216 123.845 74.4299 123.898C74.6383 123.951 74.7936 124 74.8958 124.045L74.5095 125.205C74.4413 125.182 74.3466 125.153 74.2254 125.119C74.108 125.085 73.9526 125.068 73.7595 125.068C73.3163 125.068 72.9962 125.18 72.7992 125.403C72.6061 125.627 72.5095 125.955 72.5095 126.386V136H71.1686ZM80.1336 127.273V128.409H75.4291V127.273H80.1336ZM76.8382 136V126.068C76.8382 125.568 76.9556 125.152 77.1905 124.818C77.4253 124.485 77.7302 124.235 78.1052 124.068C78.4802 123.902 78.8761 123.818 79.2927 123.818C79.6223 123.818 79.8912 123.845 80.0995 123.898C80.3079 123.951 80.4632 124 80.5655 124.045L80.1791 125.205C80.1109 125.182 80.0162 125.153 79.895 125.119C79.7776 125.085 79.6223 125.068 79.4291 125.068C78.9859 125.068 78.6658 125.18 78.4689 125.403C78.2757 125.627 78.1791 125.955 78.1791 126.386V136H76.8382ZM85.2166 136.182C84.3757 136.182 83.6503 135.996 83.0405 135.625C82.4344 135.25 81.9666 134.727 81.6371 134.057C81.3113 133.383 81.1484 132.598 81.1484 131.705C81.1484 130.811 81.3113 130.023 81.6371 129.341C81.9666 128.655 82.4249 128.121 83.0121 127.739C83.603 127.352 84.2924 127.159 85.0802 127.159C85.5348 127.159 85.9837 127.235 86.4268 127.386C86.87 127.538 87.2734 127.784 87.6371 128.125C88.0007 128.462 88.2905 128.909 88.5064 129.466C88.7223 130.023 88.8302 130.708 88.8302 131.523V132.091H82.103V130.932H87.4666C87.4666 130.439 87.3681 130 87.1712 129.614C86.978 129.227 86.7015 128.922 86.3416 128.699C85.9856 128.475 85.5651 128.364 85.0802 128.364C84.5462 128.364 84.084 128.496 83.6939 128.761C83.3075 129.023 83.0102 129.364 82.8018 129.784C82.5935 130.205 82.4893 130.655 82.4893 131.136V131.909C82.4893 132.568 82.603 133.127 82.8302 133.585C83.0613 134.04 83.3814 134.386 83.7905 134.625C84.1996 134.86 84.6749 134.977 85.2166 134.977C85.5689 134.977 85.8871 134.928 86.1712 134.83C86.459 134.727 86.7071 134.576 86.9155 134.375C87.1238 134.17 87.2848 133.917 87.3984 133.614L88.6939 133.977C88.5575 134.417 88.3284 134.803 88.0064 135.136C87.6844 135.466 87.2867 135.723 86.8132 135.909C86.3397 136.091 85.8075 136.182 85.2166 136.182ZM90.774 136V127.273H92.0695V128.591H92.1604C92.3195 128.159 92.6074 127.809 93.024 127.54C93.4407 127.271 93.9104 127.136 94.4331 127.136C94.5316 127.136 94.6547 127.138 94.8024 127.142C94.9502 127.146 95.0619 127.152 95.1377 127.159V128.523C95.0922 128.511 94.988 128.494 94.8252 128.472C94.6661 128.445 94.4975 128.432 94.3195 128.432C93.8952 128.432 93.5164 128.521 93.1831 128.699C92.8536 128.873 92.5922 129.116 92.399 129.426C92.2096 129.733 92.1149 130.083 92.1149 130.477V136H90.774ZM104.831 127.273V128.409H100.308V127.273H104.831ZM101.626 125.182H102.967V133.5C102.967 133.879 103.022 134.163 103.132 134.352C103.245 134.538 103.389 134.663 103.564 134.727C103.742 134.788 103.929 134.818 104.126 134.818C104.274 134.818 104.395 134.811 104.49 134.795C104.584 134.777 104.66 134.761 104.717 134.75L104.99 135.955C104.899 135.989 104.772 136.023 104.609 136.057C104.446 136.095 104.24 136.114 103.99 136.114C103.611 136.114 103.24 136.032 102.876 135.869C102.516 135.706 102.217 135.458 101.978 135.125C101.743 134.792 101.626 134.371 101.626 133.864V125.182ZM108.28 130.75V136H106.939V124.364H108.28V128.636H108.394C108.598 128.186 108.905 127.828 109.314 127.562C109.727 127.294 110.276 127.159 110.962 127.159C111.557 127.159 112.077 127.278 112.524 127.517C112.971 127.752 113.318 128.114 113.564 128.602C113.814 129.087 113.939 129.705 113.939 130.455V136H112.598V130.545C112.598 129.852 112.418 129.316 112.058 128.938C111.702 128.555 111.208 128.364 110.576 128.364C110.136 128.364 109.742 128.456 109.394 128.642C109.049 128.828 108.776 129.098 108.576 129.455C108.379 129.811 108.28 130.242 108.28 130.75ZM119.955 136.182C119.114 136.182 118.389 135.996 117.779 135.625C117.173 135.25 116.705 134.727 116.376 134.057C116.05 133.383 115.887 132.598 115.887 131.705C115.887 130.811 116.05 130.023 116.376 129.341C116.705 128.655 117.164 128.121 117.751 127.739C118.342 127.352 119.031 127.159 119.819 127.159C120.274 127.159 120.722 127.235 121.166 127.386C121.609 127.538 122.012 127.784 122.376 128.125C122.739 128.462 123.029 128.909 123.245 129.466C123.461 130.023 123.569 130.708 123.569 131.523V132.091H116.842V130.932H122.205C122.205 130.439 122.107 130 121.91 129.614C121.717 129.227 121.44 128.922 121.08 128.699C120.724 128.475 120.304 128.364 119.819 128.364C119.285 128.364 118.823 128.496 118.433 128.761C118.046 129.023 117.749 129.364 117.541 129.784C117.332 130.205 117.228 130.655 117.228 131.136V131.909C117.228 132.568 117.342 133.127 117.569 133.585C117.8 134.04 118.12 134.386 118.529 134.625C118.938 134.86 119.414 134.977 119.955 134.977C120.308 134.977 120.626 134.928 120.91 134.83C121.198 134.727 121.446 134.576 121.654 134.375C121.863 134.17 122.024 133.917 122.137 133.614L123.433 133.977C123.296 134.417 123.067 134.803 122.745 135.136C122.423 135.466 122.025 135.723 121.552 135.909C121.078 136.091 120.546 136.182 119.955 136.182ZM130.099 136V124.364H131.439V128.659H131.553C131.652 128.508 131.788 128.314 131.962 128.08C132.14 127.841 132.394 127.629 132.724 127.443C133.057 127.254 133.508 127.159 134.076 127.159C134.811 127.159 135.458 127.343 136.019 127.71C136.58 128.078 137.017 128.598 137.332 129.273C137.646 129.947 137.803 130.742 137.803 131.659C137.803 132.583 137.646 133.384 137.332 134.062C137.017 134.737 136.582 135.259 136.025 135.631C135.468 135.998 134.826 136.182 134.099 136.182C133.538 136.182 133.089 136.089 132.752 135.903C132.415 135.714 132.155 135.5 131.974 135.261C131.792 135.019 131.652 134.818 131.553 134.659H131.394V136H130.099ZM131.417 131.636C131.417 132.295 131.513 132.877 131.707 133.381C131.9 133.881 132.182 134.273 132.553 134.557C132.924 134.837 133.379 134.977 133.917 134.977C134.477 134.977 134.945 134.83 135.32 134.534C135.699 134.235 135.983 133.833 136.172 133.33C136.366 132.822 136.462 132.258 136.462 131.636C136.462 131.023 136.368 130.47 136.178 129.977C135.993 129.481 135.71 129.089 135.332 128.801C134.957 128.509 134.485 128.364 133.917 128.364C133.371 128.364 132.913 128.502 132.542 128.778C132.171 129.051 131.89 129.434 131.701 129.926C131.511 130.415 131.417 130.985 131.417 131.636ZM143.417 136.182C142.576 136.182 141.851 135.996 141.241 135.625C140.635 135.25 140.167 134.727 139.838 134.057C139.512 133.383 139.349 132.598 139.349 131.705C139.349 130.811 139.512 130.023 139.838 129.341C140.167 128.655 140.626 128.121 141.213 127.739C141.804 127.352 142.493 127.159 143.281 127.159C143.736 127.159 144.184 127.235 144.628 127.386C145.071 127.538 145.474 127.784 145.838 128.125C146.201 128.462 146.491 128.909 146.707 129.466C146.923 130.023 147.031 130.708 147.031 131.523V132.091H140.304V130.932H145.667C145.667 130.439 145.569 130 145.372 129.614C145.179 129.227 144.902 128.922 144.542 128.699C144.186 128.475 143.766 128.364 143.281 128.364C142.747 128.364 142.285 128.496 141.895 128.761C141.508 129.023 141.211 129.364 141.003 129.784C140.794 130.205 140.69 130.655 140.69 131.136V131.909C140.69 132.568 140.804 133.127 141.031 133.585C141.262 134.04 141.582 134.386 141.991 134.625C142.4 134.86 142.876 134.977 143.417 134.977C143.77 134.977 144.088 134.928 144.372 134.83C144.66 134.727 144.908 134.576 145.116 134.375C145.325 134.17 145.486 133.917 145.599 133.614L146.895 133.977C146.758 134.417 146.529 134.803 146.207 135.136C145.885 135.466 145.487 135.723 145.014 135.909C144.54 136.091 144.008 136.182 143.417 136.182ZM155.157 129.227L153.952 129.568C153.876 129.367 153.765 129.172 153.617 128.983C153.473 128.79 153.276 128.631 153.026 128.506C152.776 128.381 152.456 128.318 152.066 128.318C151.532 128.318 151.087 128.441 150.73 128.688C150.378 128.93 150.202 129.239 150.202 129.614C150.202 129.947 150.323 130.21 150.566 130.403C150.808 130.597 151.187 130.758 151.702 130.886L152.997 131.205C153.778 131.394 154.359 131.684 154.742 132.074C155.124 132.46 155.316 132.958 155.316 133.568C155.316 134.068 155.172 134.515 154.884 134.909C154.6 135.303 154.202 135.614 153.691 135.841C153.179 136.068 152.585 136.182 151.907 136.182C151.016 136.182 150.28 135.989 149.696 135.602C149.113 135.216 148.744 134.652 148.588 133.909L149.861 133.591C149.982 134.061 150.212 134.413 150.549 134.648C150.89 134.883 151.335 135 151.884 135C152.509 135 153.005 134.867 153.372 134.602C153.744 134.333 153.929 134.011 153.929 133.636C153.929 133.333 153.823 133.08 153.611 132.875C153.399 132.667 153.073 132.511 152.634 132.409L151.179 132.068C150.38 131.879 149.793 131.585 149.418 131.188C149.047 130.786 148.861 130.284 148.861 129.682C148.861 129.189 148.999 128.754 149.276 128.375C149.556 127.996 149.937 127.699 150.418 127.483C150.903 127.267 151.452 127.159 152.066 127.159C152.929 127.159 153.607 127.348 154.1 127.727C154.596 128.106 154.948 128.606 155.157 129.227ZM161.034 127.273V128.409H156.511V127.273H161.034ZM157.829 125.182H159.17V133.5C159.17 133.879 159.225 134.163 159.335 134.352C159.448 134.538 159.592 134.663 159.767 134.727C159.945 134.788 160.132 134.818 160.329 134.818C160.477 134.818 160.598 134.811 160.693 134.795C160.787 134.777 160.863 134.761 160.92 134.75L161.193 135.955C161.102 135.989 160.975 136.023 160.812 136.057C160.649 136.095 160.443 136.114 160.193 136.114C159.814 136.114 159.443 136.032 159.079 135.869C158.719 135.706 158.42 135.458 158.181 135.125C157.946 134.792 157.829 134.371 157.829 133.864V125.182ZM170.654 136.182C169.927 136.182 169.285 135.998 168.728 135.631C168.171 135.259 167.736 134.737 167.421 134.062C167.107 133.384 166.95 132.583 166.95 131.659C166.95 130.742 167.107 129.947 167.421 129.273C167.736 128.598 168.173 128.078 168.734 127.71C169.294 127.343 169.942 127.159 170.677 127.159C171.245 127.159 171.694 127.254 172.023 127.443C172.357 127.629 172.611 127.841 172.785 128.08C172.963 128.314 173.101 128.508 173.2 128.659H173.313V124.364H174.654V136H173.359V134.659H173.2C173.101 134.818 172.961 135.019 172.779 135.261C172.597 135.5 172.338 135.714 172.001 135.903C171.664 136.089 171.215 136.182 170.654 136.182ZM170.836 134.977C171.374 134.977 171.828 134.837 172.2 134.557C172.571 134.273 172.853 133.881 173.046 133.381C173.239 132.877 173.336 132.295 173.336 131.636C173.336 130.985 173.241 130.415 173.052 129.926C172.862 129.434 172.582 129.051 172.211 128.778C171.84 128.502 171.381 128.364 170.836 128.364C170.268 128.364 169.794 128.509 169.415 128.801C169.04 129.089 168.758 129.481 168.569 129.977C168.383 130.47 168.29 131.023 168.29 131.636C168.29 132.258 168.385 132.822 168.575 133.33C168.768 133.833 169.052 134.235 169.427 134.534C169.806 134.83 170.275 134.977 170.836 134.977ZM180.859 136.182C180.018 136.182 179.293 135.996 178.683 135.625C178.077 135.25 177.609 134.727 177.28 134.057C176.954 133.383 176.791 132.598 176.791 131.705C176.791 130.811 176.954 130.023 177.28 129.341C177.609 128.655 178.068 128.121 178.655 127.739C179.246 127.352 179.935 127.159 180.723 127.159C181.177 127.159 181.626 127.235 182.069 127.386C182.513 127.538 182.916 127.784 183.28 128.125C183.643 128.462 183.933 128.909 184.149 129.466C184.365 130.023 184.473 130.708 184.473 131.523V132.091H177.746V130.932H183.109C183.109 130.439 183.011 130 182.814 129.614C182.621 129.227 182.344 128.922 181.984 128.699C181.628 128.475 181.208 128.364 180.723 128.364C180.189 128.364 179.727 128.496 179.337 128.761C178.95 129.023 178.653 129.364 178.444 129.784C178.236 130.205 178.132 130.655 178.132 131.136V131.909C178.132 132.568 178.246 133.127 178.473 133.585C178.704 134.04 179.024 134.386 179.433 134.625C179.842 134.86 180.318 134.977 180.859 134.977C181.212 134.977 181.53 134.928 181.814 134.83C182.102 134.727 182.35 134.576 182.558 134.375C182.766 134.17 182.927 133.917 183.041 133.614L184.337 133.977C184.2 134.417 183.971 134.803 183.649 135.136C183.327 135.466 182.929 135.723 182.456 135.909C181.982 136.091 181.45 136.182 180.859 136.182ZM188.985 136.205C188.432 136.205 187.93 136.1 187.479 135.892C187.028 135.68 186.67 135.375 186.405 134.977C186.14 134.576 186.008 134.091 186.008 133.523C186.008 133.023 186.106 132.617 186.303 132.307C186.5 131.992 186.763 131.746 187.093 131.568C187.422 131.39 187.786 131.258 188.184 131.17C188.585 131.08 188.989 131.008 189.394 130.955C189.924 130.886 190.354 130.835 190.684 130.801C191.017 130.763 191.259 130.701 191.411 130.614C191.566 130.527 191.644 130.375 191.644 130.159V130.114C191.644 129.553 191.491 129.117 191.184 128.807C190.881 128.496 190.42 128.341 189.803 128.341C189.163 128.341 188.661 128.481 188.297 128.761C187.934 129.042 187.678 129.341 187.53 129.659L186.258 129.205C186.485 128.674 186.788 128.261 187.167 127.966C187.549 127.667 187.966 127.458 188.417 127.341C188.871 127.22 189.318 127.159 189.758 127.159C190.038 127.159 190.36 127.193 190.723 127.261C191.091 127.326 191.445 127.46 191.786 127.665C192.131 127.869 192.417 128.178 192.644 128.591C192.871 129.004 192.985 129.557 192.985 130.25V136H191.644V134.818H191.576C191.485 135.008 191.333 135.21 191.121 135.426C190.909 135.642 190.627 135.826 190.275 135.977C189.922 136.129 189.492 136.205 188.985 136.205ZM189.189 135C189.72 135 190.167 134.896 190.53 134.688C190.898 134.479 191.174 134.21 191.36 133.881C191.549 133.551 191.644 133.205 191.644 132.841V131.614C191.587 131.682 191.462 131.744 191.269 131.801C191.08 131.854 190.86 131.902 190.61 131.943C190.364 131.981 190.123 132.015 189.888 132.045C189.657 132.072 189.47 132.095 189.326 132.114C188.977 132.159 188.651 132.233 188.348 132.335C188.049 132.434 187.807 132.583 187.621 132.784C187.439 132.981 187.348 133.25 187.348 133.591C187.348 134.057 187.521 134.409 187.866 134.648C188.214 134.883 188.655 135 189.189 135ZM196.677 124.364V136H195.336V124.364H196.677ZM200.014 136.091C199.734 136.091 199.494 135.991 199.293 135.79C199.092 135.589 198.992 135.348 198.992 135.068C198.992 134.788 199.092 134.547 199.293 134.347C199.494 134.146 199.734 134.045 200.014 134.045C200.295 134.045 200.535 134.146 200.736 134.347C200.937 134.547 201.037 134.788 201.037 135.068C201.037 135.254 200.99 135.424 200.895 135.58C200.804 135.735 200.681 135.86 200.526 135.955C200.374 136.045 200.204 136.091 200.014 136.091ZM37 157H33.4091V145.364H37.1591C38.2879 145.364 39.2538 145.597 40.0568 146.062C40.8598 146.525 41.4754 147.189 41.9034 148.057C42.3314 148.92 42.5455 149.955 42.5455 151.159C42.5455 152.371 42.3295 153.415 41.8977 154.29C41.4659 155.161 40.8371 155.831 40.0114 156.301C39.1856 156.767 38.1818 157 37 157ZM34.8182 155.75H36.9091C37.8712 155.75 38.6686 155.564 39.3011 155.193C39.9337 154.822 40.4053 154.294 40.7159 153.608C41.0265 152.922 41.1818 152.106 41.1818 151.159C41.1818 150.22 41.0284 149.411 40.7216 148.733C40.4148 148.051 39.9564 147.528 39.3466 147.165C38.7367 146.797 37.9773 146.614 37.0682 146.614H34.8182V155.75ZM48.1767 157.182C47.3888 157.182 46.6976 156.994 46.1029 156.619C45.512 156.244 45.0498 155.72 44.7165 155.045C44.387 154.371 44.2222 153.583 44.2222 152.682C44.2222 151.773 44.387 150.979 44.7165 150.301C45.0498 149.623 45.512 149.097 46.1029 148.722C46.6976 148.347 47.3888 148.159 48.1767 148.159C48.9646 148.159 49.654 148.347 50.2449 148.722C50.8396 149.097 51.3017 149.623 51.6313 150.301C51.9646 150.979 52.1313 151.773 52.1313 152.682C52.1313 153.583 51.9646 154.371 51.6313 155.045C51.3017 155.72 50.8396 156.244 50.2449 156.619C49.654 156.994 48.9646 157.182 48.1767 157.182ZM48.1767 155.977C48.7752 155.977 49.2676 155.824 49.654 155.517C50.0404 155.21 50.3263 154.807 50.512 154.307C50.6976 153.807 50.7904 153.265 50.7904 152.682C50.7904 152.098 50.6976 151.555 50.512 151.051C50.3263 150.547 50.0404 150.14 49.654 149.83C49.2676 149.519 48.7752 149.364 48.1767 149.364C47.5782 149.364 47.0858 149.519 46.6995 149.83C46.3131 150.14 46.0271 150.547 45.8415 151.051C45.6559 151.555 45.5631 152.098 45.5631 152.682C45.5631 153.265 45.6559 153.807 45.8415 154.307C46.0271 154.807 46.3131 155.21 46.6995 155.517C47.0858 155.824 47.5782 155.977 48.1767 155.977ZM55.4231 151.75V157H54.0821V148.273H55.3776V149.636H55.4912C55.6958 149.193 56.0064 148.837 56.4231 148.568C56.8397 148.295 57.3776 148.159 58.0367 148.159C58.6276 148.159 59.1446 148.28 59.5878 148.523C60.031 148.761 60.3757 149.125 60.6219 149.614C60.8681 150.098 60.9912 150.712 60.9912 151.455V157H59.6503V151.545C59.6503 150.86 59.4723 150.326 59.1162 149.943C58.7602 149.557 58.2715 149.364 57.6503 149.364C57.2223 149.364 56.8397 149.456 56.5026 149.642C56.1693 149.828 55.906 150.098 55.7128 150.455C55.5196 150.811 55.4231 151.242 55.4231 151.75ZM64.5273 145.364V146.386C64.5273 146.697 64.4705 147.028 64.3569 147.381C64.247 147.729 64.0842 148.068 63.8682 148.398C63.6561 148.723 63.3986 149.008 63.0955 149.25L62.3682 148.659C62.6069 148.318 62.8133 147.964 62.9876 147.597C63.1656 147.225 63.2546 146.83 63.2546 146.409V145.364H64.5273ZM70.2325 148.273V149.409H65.7098V148.273H70.2325ZM67.0279 146.182H68.3688V154.5C68.3688 154.879 68.4238 155.163 68.5336 155.352C68.6473 155.538 68.7912 155.663 68.9654 155.727C69.1435 155.788 69.331 155.818 69.5279 155.818C69.6757 155.818 69.7969 155.811 69.8916 155.795C69.9863 155.777 70.062 155.761 70.1188 155.75L70.3916 156.955C70.3007 156.989 70.1738 157.023 70.0109 157.057C69.848 157.095 69.6416 157.114 69.3916 157.114C69.0128 157.114 68.6416 157.032 68.2779 156.869C67.9181 156.706 67.6188 156.458 67.3802 156.125C67.1454 155.792 67.0279 155.371 67.0279 154.864V146.182ZM76.5575 157V148.273H77.853V149.636H77.9666C78.1484 149.17 78.442 148.809 78.8473 148.551C79.2526 148.29 79.7393 148.159 80.3075 148.159C80.8833 148.159 81.3624 148.29 81.745 148.551C82.1314 148.809 82.4325 149.17 82.6484 149.636H82.7393C82.9628 149.186 83.2981 148.828 83.745 148.562C84.192 148.294 84.728 148.159 85.353 148.159C86.1333 148.159 86.7715 148.403 87.2677 148.892C87.764 149.377 88.0121 150.133 88.0121 151.159V157H86.6712V151.159C86.6712 150.515 86.495 150.055 86.1427 149.778C85.7905 149.502 85.3757 149.364 84.8984 149.364C84.2848 149.364 83.8094 149.549 83.4723 149.92C83.1352 150.288 82.9666 150.754 82.9666 151.318V157H81.603V151.023C81.603 150.527 81.442 150.127 81.12 149.824C80.7981 149.517 80.3833 149.364 79.8757 149.364C79.5272 149.364 79.2015 149.456 78.8984 149.642C78.5992 149.828 78.3568 150.085 78.1712 150.415C77.9893 150.741 77.8984 151.117 77.8984 151.545V157H76.5575ZM90.3678 157V148.273H91.7087V157H90.3678ZM91.0496 146.818C90.7882 146.818 90.5628 146.729 90.3735 146.551C90.1878 146.373 90.095 146.159 90.095 145.909C90.095 145.659 90.1878 145.445 90.3735 145.267C90.5628 145.089 90.7882 145 91.0496 145C91.311 145 91.5344 145.089 91.72 145.267C91.9094 145.445 92.0041 145.659 92.0041 145.909C92.0041 146.159 91.9094 146.373 91.72 146.551C91.5344 146.729 91.311 146.818 91.0496 146.818ZM100.25 150.227L99.0459 150.568C98.9702 150.367 98.8584 150.172 98.7107 149.983C98.5668 149.79 98.3698 149.631 98.1198 149.506C97.8698 149.381 97.5497 149.318 97.1596 149.318C96.6255 149.318 96.1804 149.441 95.8243 149.688C95.4721 149.93 95.2959 150.239 95.2959 150.614C95.2959 150.947 95.4171 151.21 95.6596 151.403C95.902 151.597 96.2808 151.758 96.7959 151.886L98.0914 152.205C98.8717 152.394 99.4531 152.684 99.8357 153.074C100.218 153.46 100.41 153.958 100.41 154.568C100.41 155.068 100.266 155.515 99.9777 155.909C99.6936 156.303 99.2959 156.614 98.7846 156.841C98.2732 157.068 97.6785 157.182 97.0005 157.182C96.1103 157.182 95.3736 156.989 94.7902 156.602C94.2069 156.216 93.8376 155.652 93.6823 154.909L94.955 154.591C95.0762 155.061 95.3054 155.413 95.6425 155.648C95.9834 155.883 96.4285 156 96.9777 156C97.6027 156 98.0989 155.867 98.4664 155.602C98.8376 155.333 99.0232 155.011 99.0232 154.636C99.0232 154.333 98.9171 154.08 98.705 153.875C98.4929 153.667 98.1671 153.511 97.7277 153.409L96.2732 153.068C95.4739 152.879 94.8868 152.585 94.5118 152.188C94.1406 151.786 93.955 151.284 93.955 150.682C93.955 150.189 94.0933 149.754 94.3698 149.375C94.6501 148.996 95.0308 148.699 95.5118 148.483C95.9967 148.267 96.5459 148.159 97.1596 148.159C98.0232 148.159 98.7012 148.348 99.1936 148.727C99.6899 149.106 100.042 149.606 100.25 150.227ZM108.514 150.227L107.309 150.568C107.234 150.367 107.122 150.172 106.974 149.983C106.83 149.79 106.633 149.631 106.383 149.506C106.133 149.381 105.813 149.318 105.423 149.318C104.889 149.318 104.444 149.441 104.088 149.688C103.735 149.93 103.559 150.239 103.559 150.614C103.559 150.947 103.681 151.21 103.923 151.403C104.165 151.597 104.544 151.758 105.059 151.886L106.355 152.205C107.135 152.394 107.716 152.684 108.099 153.074C108.482 153.46 108.673 153.958 108.673 154.568C108.673 155.068 108.529 155.515 108.241 155.909C107.957 156.303 107.559 156.614 107.048 156.841C106.537 157.068 105.942 157.182 105.264 157.182C104.374 157.182 103.637 156.989 103.054 156.602C102.47 156.216 102.101 155.652 101.946 154.909L103.218 154.591C103.34 155.061 103.569 155.413 103.906 155.648C104.247 155.883 104.692 156 105.241 156C105.866 156 106.362 155.867 106.73 155.602C107.101 155.333 107.287 155.011 107.287 154.636C107.287 154.333 107.181 154.08 106.968 153.875C106.756 153.667 106.431 153.511 105.991 153.409L104.537 153.068C103.737 152.879 103.15 152.585 102.775 152.188C102.404 151.786 102.218 151.284 102.218 150.682C102.218 150.189 102.357 149.754 102.633 149.375C102.913 148.996 103.294 148.699 103.775 148.483C104.26 148.267 104.809 148.159 105.423 148.159C106.287 148.159 106.965 148.348 107.457 148.727C107.953 149.106 108.306 149.606 108.514 150.227ZM118.545 157.182C117.757 157.182 117.066 156.994 116.471 156.619C115.88 156.244 115.418 155.72 115.085 155.045C114.755 154.371 114.59 153.583 114.59 152.682C114.59 151.773 114.755 150.979 115.085 150.301C115.418 149.623 115.88 149.097 116.471 148.722C117.066 148.347 117.757 148.159 118.545 148.159C119.333 148.159 120.022 148.347 120.613 148.722C121.208 149.097 121.67 149.623 121.999 150.301C122.333 150.979 122.499 151.773 122.499 152.682C122.499 153.583 122.333 154.371 121.999 155.045C121.67 155.72 121.208 156.244 120.613 156.619C120.022 156.994 119.333 157.182 118.545 157.182ZM118.545 155.977C119.143 155.977 119.636 155.824 120.022 155.517C120.408 155.21 120.694 154.807 120.88 154.307C121.066 153.807 121.158 153.265 121.158 152.682C121.158 152.098 121.066 151.555 120.88 151.051C120.694 150.547 120.408 150.14 120.022 149.83C119.636 149.519 119.143 149.364 118.545 149.364C117.946 149.364 117.454 149.519 117.068 149.83C116.681 150.14 116.395 150.547 116.21 151.051C116.024 151.555 115.931 152.098 115.931 152.682C115.931 153.265 116.024 153.807 116.21 154.307C116.395 154.807 116.681 155.21 117.068 155.517C117.454 155.824 117.946 155.977 118.545 155.977ZM129.95 153.432V148.273H131.291V157H129.95V155.523H129.859C129.655 155.966 129.337 156.343 128.905 156.653C128.473 156.96 127.928 157.114 127.268 157.114C126.723 157.114 126.238 156.994 125.814 156.756C125.39 156.513 125.056 156.15 124.814 155.665C124.571 155.176 124.45 154.561 124.45 153.818V148.273H125.791V153.727C125.791 154.364 125.969 154.871 126.325 155.25C126.685 155.629 127.143 155.818 127.7 155.818C128.034 155.818 128.373 155.733 128.717 155.562C129.066 155.392 129.357 155.131 129.592 154.778C129.831 154.426 129.95 153.977 129.95 153.432ZM137.447 148.273V149.409H132.924V148.273H137.447ZM134.242 146.182H135.583V154.5C135.583 154.879 135.638 155.163 135.748 155.352C135.861 155.538 136.005 155.663 136.18 155.727C136.358 155.788 136.545 155.818 136.742 155.818C136.89 155.818 137.011 155.811 137.106 155.795C137.2 155.777 137.276 155.761 137.333 155.75L137.606 156.955C137.515 156.989 137.388 157.023 137.225 157.057C137.062 157.095 136.856 157.114 136.606 157.114C136.227 157.114 135.856 157.032 135.492 156.869C135.132 156.706 134.833 156.458 134.594 156.125C134.359 155.792 134.242 155.371 134.242 154.864V146.182ZM141.14 145.364L141.027 153.727H139.709L139.595 145.364H141.14ZM140.368 157.091C140.087 157.091 139.847 156.991 139.646 156.79C139.445 156.589 139.345 156.348 139.345 156.068C139.345 155.788 139.445 155.547 139.646 155.347C139.847 155.146 140.087 155.045 140.368 155.045C140.648 155.045 140.888 155.146 141.089 155.347C141.29 155.547 141.39 155.788 141.39 156.068C141.39 156.254 141.343 156.424 141.248 156.58C141.157 156.735 141.034 156.86 140.879 156.955C140.727 157.045 140.557 157.091 140.368 157.091Z" fill="white"/>
</svg>
