<svg width="49" height="48" viewBox="0 0 49 48" fill="none" xmlns="http://www.w3.org/2000/svg">
<rect x="0.310547" width="48" height="48" rx="8" fill="white"/>
<path d="M18.3105 23V27M30.3105 21V25M29.3105 16C31.7593 16 33.0837 16.3748 33.7427 16.6654C33.8304 16.7042 33.8743 16.7235 34.0009 16.8444C34.0769 16.9168 34.2154 17.1294 34.2511 17.2281C34.3105 17.3927 34.3105 17.4827 34.3105 17.6627V28.4111C34.3105 29.3199 34.3105 29.7743 34.1743 30.0079C34.0356 30.2454 33.902 30.3559 33.6425 30.4472C33.3874 30.5369 32.8725 30.438 31.8427 30.2401C31.1219 30.1017 30.2671 30 29.3105 30C26.3105 30 23.3105 32 19.3105 32C16.8618 32 15.5374 31.6252 14.8784 31.3346C14.7907 31.2958 14.7468 31.2765 14.6201 31.1556C14.5442 31.0832 14.4057 30.8706 14.37 30.7719C14.3105 30.6073 14.3105 30.5173 14.3105 30.3373L14.3105 19.5889C14.3105 18.6801 14.3105 18.2257 14.4468 17.9921C14.5854 17.7546 14.7191 17.6441 14.9786 17.5528C15.2337 17.4631 15.7486 17.562 16.7784 17.7598C17.4992 17.8983 18.354 18 19.3105 18C22.3105 18 25.3105 16 29.3105 16ZM26.8105 24C26.8105 25.3807 25.6913 26.5 24.3105 26.5C22.9298 26.5 21.8105 25.3807 21.8105 24C21.8105 22.6193 22.9298 21.5 24.3105 21.5C25.6913 21.5 26.8105 22.6193 26.8105 24Z" stroke="black" stroke-width="2" stroke-linecap="round" stroke-linejoin="round"/>
</svg>
