<svg width="49" height="48" viewBox="0 0 49 48" fill="none" xmlns="http://www.w3.org/2000/svg">
<rect x="0.969727" width="48" height="48" rx="8" fill="white"/>
<path d="M17.9697 21V29M22.4697 21V29M27.4697 21V29M31.9697 21V29M15.9697 30.6L15.9697 31.4C15.9697 31.9601 15.9697 32.2401 16.0787 32.454C16.1746 32.6422 16.3276 32.7952 16.5157 32.891C16.7296 33 17.0097 33 17.5697 33H32.3697C32.9298 33 33.2098 33 33.4237 32.891C33.6119 32.7952 33.7649 32.6422 33.8607 32.454C33.9697 32.2401 33.9697 31.9601 33.9697 31.4V30.6C33.9697 30.04 33.9697 29.7599 33.8607 29.546C33.7649 29.3579 33.6119 29.2049 33.4237 29.109C33.2098 29 32.9298 29 32.3697 29H17.5697C17.0097 29 16.7296 29 16.5157 29.109C16.3276 29.2049 16.1746 29.3579 16.0787 29.546C15.9697 29.7599 15.9697 30.04 15.9697 30.6ZM24.6226 15.0772L17.2226 16.7216C16.7756 16.8209 16.552 16.8706 16.3852 16.9908C16.238 17.0969 16.1225 17.2409 16.0509 17.4076C15.9697 17.5965 15.9697 17.8255 15.9697 18.2835L15.9697 19.4C15.9697 19.9601 15.9697 20.2401 16.0787 20.454C16.1746 20.6422 16.3276 20.7952 16.5157 20.891C16.7296 21 17.0097 21 17.5697 21H32.3697C32.9298 21 33.2098 21 33.4237 20.891C33.6119 20.7952 33.7649 20.6422 33.8607 20.454C33.9697 20.2401 33.9697 19.9601 33.9697 19.4V18.2835C33.9697 17.8255 33.9697 17.5965 33.8886 17.4076C33.817 17.2409 33.7014 17.0969 33.5543 16.9908C33.3874 16.8706 33.1639 16.8209 32.7168 16.7216L25.3168 15.0772C25.1873 15.0484 25.1225 15.034 25.0571 15.0282C24.999 15.0231 24.9405 15.0231 24.8824 15.0282C24.8169 15.034 24.7522 15.0484 24.6226 15.0772Z" stroke="black" stroke-width="2" stroke-linecap="round" stroke-linejoin="round"/>
</svg>
