<svg width="49" height="48" viewBox="0 0 49 48" fill="none" xmlns="http://www.w3.org/2000/svg">
<rect x="0.310547" width="48" height="48" rx="8" fill="white"/>
<path d="M21.3105 21H21.3205M27.3105 27H27.3205M28.3105 20L20.3105 28M21.8105 21C21.8105 21.2761 21.5867 21.5 21.3105 21.5C21.0344 21.5 20.8105 21.2761 20.8105 21C20.8105 20.7239 21.0344 20.5 21.3105 20.5C21.5867 20.5 21.8105 20.7239 21.8105 21ZM27.8105 27C27.8105 27.2761 27.5867 27.5 27.3105 27.5C27.0344 27.5 26.8105 27.2761 26.8105 27C26.8105 26.7239 27.0344 26.5 27.3105 26.5C27.5867 26.5 27.8105 26.7239 27.8105 27ZM34.3105 24C34.3105 29.5228 29.8334 34 24.3105 34C18.7877 34 14.3105 29.5228 14.3105 24C14.3105 18.4772 18.7877 14 24.3105 14C29.8334 14 34.3105 18.4772 34.3105 24Z" stroke="black" stroke-width="2" stroke-linecap="round" stroke-linejoin="round"/>
</svg>
