<svg width="49" height="48" viewBox="0 0 49 48" fill="none" xmlns="http://www.w3.org/2000/svg">
<rect x="0.639648" width="48" height="48" rx="8" fill="white"/>
<path d="M29.6396 22V20C29.6396 17.2386 27.4011 15 24.6396 15C21.8782 15 19.6396 17.2386 19.6396 20V22M24.6396 26.5V28.5M21.4396 33H27.8396C29.5198 33 30.3599 33 31.0016 32.673C31.5661 32.3854 32.025 31.9265 32.3127 31.362C32.6396 30.7202 32.6396 29.8802 32.6396 28.2V26.8C32.6396 25.1198 32.6396 24.2798 32.3127 23.638C32.025 23.0735 31.5661 22.6146 31.0016 22.327C30.3599 22 29.5198 22 27.8396 22H21.4396C19.7595 22 18.9194 22 18.2777 22.327C17.7132 22.6146 17.2542 23.0735 16.9666 23.638C16.6396 24.2798 16.6396 25.1198 16.6396 26.8V28.2C16.6396 29.8802 16.6396 30.7202 16.9666 31.362C17.2542 31.9265 17.7132 32.3854 18.2777 32.673C18.9194 33 19.7595 33 21.4396 33Z" stroke="black" stroke-width="2" stroke-linecap="round" stroke-linejoin="round"/>
</svg>
